<?xml version="1.0" standalone="no"?>
<!DOCTYPE svg PUBLIC "-//W3C//DTD SVG 1.1//EN" "http://www.w3.org/Graphics/SVG/1.1/DTD/svg11.dtd" >
<svg xmlns="http://www.w3.org/2000/svg">
<metadata></metadata>
<defs>
<font id="thesans_swisscom_lightregular" horiz-adv-x="1126" >
<font-face units-per-em="2048" ascent="1516" descent="-532" />
<missing-glyph horiz-adv-x="446" />
<glyph unicode="&#xfb01;" horiz-adv-x="1200" d="M12 915v103h234v51q0 209 110.5 322.5t343.5 113.5q70 0 138.5 -11t126.5 -28l-27 -108q-57 18 -125 29.5t-121 11.5q-168 0 -242.5 -81t-74.5 -226v-74h629v-1018h-127v915h-502v-915h-129v915h-234z" />
<glyph unicode="&#xfb02;" horiz-adv-x="1200" d="M12 915v103h234v131q0 168 108.5 262t335.5 94q78 0 159 -8t155 -18v-1479h-127v1384q-53 8 -102.5 12.5t-98.5 4.5q-156 0 -228.5 -63.5t-72.5 -209.5v-110h311v-103h-311v-915h-129v915h-234z" />
<glyph unicode="&#xfb03;" horiz-adv-x="1820" d="M12 915v103h234v53q0 76 19.5 150.5t67.5 133t130 95.5t209 37q98 0 180 -17.5t154 -52.5q51 39 125.5 63.5t189.5 24.5q70 0 138.5 -10t127.5 -27l-26 -110q-59 18 -127 29.5t-121 11.5q-168 0 -243 -81t-75 -226v-74h629v-1018h-129v915h-500v-915h-129v915h-491v-915 h-129v915h-234zM375 1018h491v51q0 63 13.5 131t50.5 127q-72 33 -136.5 44t-129.5 11q-152 0 -220.5 -73.5t-68.5 -216.5v-74z" />
<glyph unicode="&#xfb04;" horiz-adv-x="1820" d="M12 915v103h234v53q0 76 19.5 150.5t67.5 133t130 95.5t209 37q94 0 172 -16.5t147 -49.5q109 84 318 84q78 0 159.5 -8t155.5 -18v-1479h-129v1384q-51 10 -101.5 13.5t-97.5 3.5q-158 0 -229.5 -63.5t-71.5 -209.5v-110h312v-103h-312v-915h-129v915h-491v-915h-129 v915h-234zM375 1018h491v131q0 112 47 186q-68 29 -128 38t-121 9q-152 0 -220.5 -73.5t-68.5 -216.5v-74z" />
<glyph horiz-adv-x="0" />
<glyph horiz-adv-x="0" />
<glyph unicode="&#xd;" horiz-adv-x="1024" />
<glyph unicode=" "  horiz-adv-x="446" />
<glyph unicode="&#x09;" horiz-adv-x="446" />
<glyph unicode="&#xa0;" horiz-adv-x="446" />
<glyph unicode="!" horiz-adv-x="651" d="M248 82q0 41 28.5 68.5t69.5 27.5t69.5 -27.5t28.5 -68.5t-28.5 -69.5t-69.5 -28.5t-69.5 28.5t-28.5 69.5zM268 1432h156l-25 -1117h-104z" />
<glyph unicode="&#x22;" horiz-adv-x="692" d="M119 1427h145l-26 -436h-95zM430 1427h143l-24 -436h-94z" />
<glyph unicode="#" horiz-adv-x="1173" d="M74 406v88h213l45 409h-207v88h215l43 391h104l-41 -391h345l43 391h106l-43 -391h201v-88h-209l-45 -409h205v-88h-215l-41 -406h-107l43 406h-346l-41 -406h-106l43 406h-205zM393 494h344l45 409h-344z" />
<glyph unicode="$" horiz-adv-x="995" d="M135 940q0 66 23.5 123t67.5 100t105.5 71t137.5 36v223h102v-217q63 -2 118.5 -8t101.5 -17l-9 -121q-55 16 -115.5 26.5t-117.5 10.5q-80 0 -135.5 -18.5t-89 -47t-48 -66.5t-14.5 -77q0 -76 45 -123t112.5 -80.5t146.5 -63t146.5 -71.5t112.5 -105t45 -161 q0 -141 -90 -240.5t-256 -123.5v-279h-100v273q-78 2 -139.5 9t-120.5 23l8 127q27 -10 60.5 -19t70.5 -15.5t74 -9.5t67 -3q61 0 114.5 13.5t93.5 41t63.5 72.5t23.5 109q0 78 -45 125t-111.5 80.5t-145.5 62.5t-145.5 71t-111.5 104.5t-45 164.5z" />
<glyph unicode="%" horiz-adv-x="1521" d="M98 1077q0 68 20.5 127.5t58.5 103.5t93.5 68.5t124.5 24.5q147 0 212 -80t65 -225q0 -70 -19.5 -130.5t-58.5 -104.5t-93.5 -68.5t-125.5 -24.5q-147 0 -212 81t-65 228zM209 20l1012 1399l88 -61l-1012 -1397zM217 1090q0 -111 40 -169.5t134 -58.5q74 0 119 60.5 t45 158.5q0 111 -40 167.5t-132 56.5q-76 0 -121 -59.5t-45 -155.5zM848 291q0 68 20.5 127t58.5 103t93 68.5t125 24.5q147 0 211.5 -79t64.5 -226q0 -141 -77.5 -233t-219.5 -92q-147 0 -211.5 79.5t-64.5 227.5zM967 305q0 -113 40 -170t134 -57q72 0 118 60.5t46 158.5 q0 111 -40 167t-132 56q-76 0 -121 -59.5t-45 -155.5z" />
<glyph unicode="&#x26;" horiz-adv-x="1626" d="M127 377q0 74 22.5 135t62.5 115.5t95 105.5t123 103q-59 68 -97 120t-61.5 96t-33 83t-9.5 79q0 57 21.5 110.5t63.5 93.5t104.5 63.5t142.5 23.5q147 0 224 -75.5t77 -186.5q0 -102 -58.5 -197.5t-203.5 -207.5q49 -53 109.5 -114.5t127 -124t136 -125t137.5 -116.5v-2 q72 96 116 233.5t34 311.5h131q6 -180 -43.5 -336.5t-147.5 -279.5q86 -66 159 -121t132 -96l-82 -101q-78 53 -155.5 112.5t-141.5 113.5q-104 -94 -239.5 -151.5t-309.5 -57.5q-104 0 -185 28.5t-136.5 80.5t-85 125t-29.5 159zM258 395q0 -61 23.5 -116.5t66.5 -97.5 t104.5 -65.5t137.5 -23.5q145 0 253.5 51t182.5 119q-70 57 -142.5 123t-142 131.5t-131 129t-108.5 116.5q-131 -102 -187.5 -187.5t-56.5 -179.5zM356 1221q0 -55 38 -126t136 -182q100 80 151.5 153t51.5 161q0 72 -44 124t-142 52q-86 0 -138.5 -50t-52.5 -132z" />
<glyph unicode="'" horiz-adv-x="382" d="M119 1427h145l-26 -436h-95z" />
<glyph unicode="(" horiz-adv-x="616" d="M170 580q0 104 13.5 223t47 246t91 264t147.5 278l88 -47q-129 -219 -195.5 -461.5t-66.5 -490.5q0 -266 64.5 -501.5t201.5 -459.5l-94 -51q-94 150 -152.5 285t-90 259t-43 237.5t-11.5 218.5z" />
<glyph unicode=")" horiz-adv-x="616" d="M72 1542l94 49q94 -150 151.5 -285t89 -257.5t43 -236.5t11.5 -218t-13.5 -223t-47 -247t-92 -265.5t-146.5 -278.5l-88 49q129 219 195.5 461t66.5 492q0 266 -64.5 501.5t-199.5 458.5z" />
<glyph unicode="*" horiz-adv-x="749" d="M88 1100l213 102l-213 101l51 90l195 -131l-17 233h103l-17 -233l193 131l49 -88l-211 -101l211 -102l-51 -90l-193 131l17 -234h-103l17 234l-195 -131z" />
<glyph unicode="+" d="M90 555v109h410v430h123v-430h413v-109h-413v-432h-123v432h-410z" />
<glyph unicode="," horiz-adv-x="425" d="M49 -238q94 100 106.5 173t-14.5 108q-16 23 -18 47.5t8 44t30.5 32.5t45.5 13q45 0 73.5 -37t23.5 -100t-50 -148t-145 -184z" />
<glyph unicode="-" horiz-adv-x="669" d="M100 549v106h469v-106h-469z" />
<glyph unicode="." horiz-adv-x="425" d="M115 84q0 41 28.5 69.5t69.5 28.5t69.5 -28.5t28.5 -69.5t-28.5 -70.5t-69.5 -29.5t-69.5 29.5t-28.5 70.5z" />
<glyph unicode="/" horiz-adv-x="860" d="M25 -330l716 1880h121l-717 -1880h-120z" />
<glyph unicode="0" d="M115 674q0 174 34.5 302t96 210t146.5 122t183 40q90 0 169 -30t138.5 -105.5t93.5 -204.5t34 -326t-40 -330t-105.5 -215t-148.5 -117.5t-167 -35.5q-109 0 -189.5 37.5t-135 119.5t-82 213t-27.5 320zM254 686q0 -143 15.5 -253.5t51 -186.5t95 -115t145.5 -39 q145 0 227 147.5t82 428.5q0 154 -18 263t-57 178t-96.5 100.5t-137.5 31.5q-66 0 -121 -29.5t-97 -96t-65.5 -172t-23.5 -257.5z" />
<glyph unicode="1" d="M164 1186l397 145h111v-1214h329v-117h-835v117h373v1087l-349 -137z" />
<glyph unicode="2" d="M129 0v102l360 355q94 94 153.5 162.5t93.5 124t45.5 103.5t11.5 103q0 59 -19.5 112.5t-58.5 92.5t-94.5 61.5t-124.5 22.5q-47 0 -92.5 -10t-86.5 -26.5t-74.5 -37t-58.5 -41.5l-43 109q74 49 167 82t204 33q102 0 180 -31t130 -83t79 -121t27 -144q0 -66 -13.5 -124.5 t-49.5 -123t-98 -139t-163 -168.5l-309 -293v-2q59 2 175 3t275 1h234v-123h-850z" />
<glyph unicode="3" d="M174 16l19 121q53 -18 116.5 -29.5t130.5 -11.5q180 0 277.5 76t97.5 203t-95 199.5t-269 72.5q-53 0 -96.5 -2t-96.5 -6v109h37q236 0 362.5 66.5t126.5 207.5q0 104 -74.5 161.5t-197.5 57.5q-86 0 -158.5 -22.5t-140.5 -57.5l-14 119q70 29 150.5 48.5t178.5 19.5 t172 -25t123 -67t74 -98t25 -122q0 -123 -70 -202.5t-199 -114.5l-2 -4q63 -4 118.5 -31t96.5 -70t64.5 -99.5t23.5 -119.5q0 -92 -36.5 -168.5t-106.5 -130t-168 -83t-223 -29.5q-66 0 -129.5 8t-116.5 24z" />
<glyph unicode="4" d="M55 420l604 911h177v-893h243v-116h-243v-322h-129v322h-644zM190 434q53 2 128 3t149 1h139h101v764h-2z" />
<glyph unicode="5" d="M184 10v123q55 -18 119 -28.5t133 -10.5q186 0 283.5 86t97.5 232q0 139 -103.5 209.5t-273.5 70.5q-66 0 -125 -4t-96 -12v655h688v-125h-569v-411q31 4 68.5 5t66.5 1q119 0 210 -30t150.5 -80t90 -117.5t30.5 -143.5q0 -100 -37.5 -183t-107.5 -141.5t-168 -90 t-219 -31.5q-125 0 -238 26z" />
<glyph unicode="6" d="M127 528q0 223 50 379t139.5 254.5t211 142.5t265.5 44q27 0 54 -1t42 -4v-114q-25 4 -51.5 5t-63.5 1q-227 0 -349 -130t-161 -366q-2 -16 -7 -46.5t-9 -67.5h2q53 98 147.5 151t210.5 53q98 0 175 -29.5t129.5 -81.5t79 -123t26.5 -151q0 -102 -32 -187t-90 -145.5 t-140 -94t-183 -33.5q-106 0 -189 38.5t-140.5 109.5t-87 171t-29.5 225zM274 434q0 -70 20.5 -132t60.5 -109.5t98.5 -75t136.5 -27.5q141 0 219 91.5t78 236.5q0 135 -76 219t-225 84q-74 0 -131.5 -26.5t-97.5 -68.5t-61.5 -93.5t-21.5 -98.5z" />
<glyph unicode="7" d="M123 1204v127h885v-112q-84 -152 -162 -310.5t-148.5 -314.5t-132 -306.5t-110.5 -287.5h-154q113 287 253 595t306 613q-16 0 -74.5 -1t-138.5 -2t-172 -1h-170h-182z" />
<glyph unicode="8" d="M129 303q0 68 26.5 122t70.5 98t100.5 82t117.5 71q-133 63 -206.5 141t-73.5 199q0 70 28.5 130t83 105t129 71t166.5 26q186 0 288 -87t102 -229q0 -59 -24 -107t-61.5 -89t-89 -76t-106.5 -66q59 -31 115.5 -64.5t101.5 -76.5t71.5 -99t26.5 -130q0 -76 -32.5 -138.5 t-92 -107.5t-140.5 -69.5t-177 -24.5q-94 0 -172 22.5t-134.5 64.5t-87 101t-30.5 131zM268 313q0 -98 77 -160.5t224 -62.5q59 0 111.5 14.5t92.5 42t62.5 68.5t22.5 94q0 63 -25.5 110.5t-67.5 84.5t-97.5 65.5t-114.5 55.5q-55 -31 -106.5 -63t-91.5 -68.5t-63.5 -80.5 t-23.5 -100zM301 1026q0 -47 15.5 -84t48 -69.5t84 -62.5t120.5 -65q51 29 97.5 57.5t81 61.5t55 71t20.5 85q0 111 -73.5 166t-190.5 55q-121 0 -189.5 -62.5t-68.5 -152.5z" />
<glyph unicode="9" d="M109 897q0 100 32.5 184t91 142.5t139.5 91.5t177 33q100 0 181 -31t139.5 -97.5t90 -170t31.5 -246.5q0 -229 -52 -386t-142 -253t-213 -138t-265 -42q-74 0 -147 12v121q39 -8 83 -13.5t89 -5.5q219 0 339 115t155 348q4 33 8 56.5t10 52.5h-2q-51 -82 -139 -129 t-205 -47q-96 0 -171 29.5t-126 84t-77.5 128t-26.5 161.5zM242 920q0 -141 75.5 -226.5t214.5 -85.5q74 0 132.5 23.5t98.5 63.5t60.5 92.5t20.5 111.5q0 74 -20.5 136.5t-59.5 108.5t-96.5 71.5t-130.5 25.5q-70 0 -125.5 -25.5t-93 -68.5t-57 -101.5t-19.5 -125.5z" />
<glyph unicode=":" horiz-adv-x="569" d="M221 84q0 41 29 69.5t69 28.5q41 0 70 -28.5t29 -69.5t-29 -70.5t-70 -29.5t-69.5 29.5t-28.5 70.5zM221 696q0 41 29 70t69 29q41 0 70 -29t29 -70t-29 -69.5t-70 -28.5t-69.5 28.5t-28.5 69.5z" />
<glyph unicode=";" horiz-adv-x="569" d="M160 -238q47 51 71.5 94.5t33.5 79t4 62.5t-17 45q-16 23 -18.5 47.5t8 44t29.5 32.5t46 13q45 0 73 -37t24 -100t-49.5 -148t-145.5 -184zM221 696q0 41 29 70t69 29q41 0 70 -29t29 -70t-29 -69.5t-70 -28.5t-69.5 28.5t-28.5 69.5z" />
<glyph unicode="&#x3c;" d="M160 623l643 563l82 -80l-559 -481l559 -478l-82 -88z" />
<glyph unicode="=" d="M117 393v111h893v-111h-893zM117 715v108h893v-108h-893z" />
<glyph unicode="&#x3e;" d="M242 139l559 482l-559 477l82 88l643 -563l-643 -564z" />
<glyph unicode="?" horiz-adv-x="903" d="M197 1325l16 119q125 -6 226.5 -38t173 -84t110.5 -118.5t39 -140.5q0 -84 -32 -143.5t-76 -107.5t-92 -93t-83 -100.5t-46 -128t20 -175.5h-127q-33 104 -24 181t42 135.5t80 105.5t90 94.5t73.5 98.5t30.5 119q0 53 -30.5 101t-86 86t-133 61.5t-171.5 27.5zM293 82 q0 41 27.5 68.5t68.5 27.5t69.5 -27.5t28.5 -68.5t-28.5 -69.5t-69.5 -28.5t-68.5 28.5t-27.5 69.5z" />
<glyph unicode="@" horiz-adv-x="2015" d="M184 578q0 201 72 369.5t194.5 290.5t284.5 190.5t342 68.5q186 0 325.5 -56.5t229.5 -150.5t135 -216t45 -253q0 -133 -34.5 -237.5t-94 -175t-140.5 -107.5t-173 -37q-68 0 -114 21.5t-72.5 55.5t-33.5 78t1 87h-6q-10 -31 -39 -73t-72 -80t-96 -63.5t-113 -25.5 q-102 0 -148 69.5t-46 192.5q0 113 28.5 213.5t85 176t141.5 119.5t197 44q68 0 134.5 -6t115.5 -16l-84 -457q-23 -117 17.5 -171t128.5 -54q63 0 117.5 28.5t94.5 85t62.5 138.5t22.5 186q0 106 -34 210.5t-109.5 187.5t-194.5 133.5t-287 50.5q-158 0 -297 -59.5 t-241.5 -166t-162 -252t-59.5 -319.5q0 -154 44 -276.5t130 -210.5t210 -135.5t284 -47.5q92 0 172 11.5t164 37.5l18 -110q-86 -27 -185.5 -39t-185.5 -12q-180 0 -323 54t-243.5 153.5t-154 239.5t-53.5 315zM752 555q0 -176 104 -176q43 0 90 29.5t90 88t80 146.5t60 205 l24 119q-55 14 -141 14q-82 0 -140.5 -43t-95.5 -107.5t-54 -138.5t-17 -137z" />
<glyph unicode="A" horiz-adv-x="1245" d="M33 0l520 1382h141l518 -1382h-151l-125 352h-637l-129 -352h-137zM336 459h561l-217 596q-18 49 -33.5 94t-28.5 90h-2q-14 -45 -29.5 -91t-31.5 -89z" />
<glyph unicode="B" horiz-adv-x="1153" d="M197 0v1382q66 0 153.5 2t210.5 2q221 0 324.5 -88t103.5 -235q0 -117 -68.5 -205t-191.5 -127v-2q82 -12 139.5 -43t94 -75t53 -97t16.5 -108q0 -53 -18.5 -124t-74.5 -135.5t-157.5 -108.5t-267.5 -44q-61 0 -150.5 2t-166.5 4zM328 113q31 -4 79 -8.5t119 -4.5 q98 0 169 22.5t115 62.5t65.5 95.5t21.5 118.5q0 78 -34 129.5t-92 82t-136 43t-168 12.5h-66q-45 0 -73 -2v-551zM328 768q35 -2 65 -2h74q195 0 291 71.5t96 202.5q0 51 -14.5 96.5t-50 77t-96 50t-154.5 18.5q-53 0 -108.5 -1t-102.5 -3v-510z" />
<glyph unicode="C" horiz-adv-x="1218" d="M106 664q0 154 38 287.5t118 233t206 156t304 56.5q82 0 167 -12.5t163 -34.5l-25 -121q-162 57 -334 57q-133 0 -227 -48t-153.5 -130t-87 -191.5t-27.5 -230.5q0 -279 126 -432.5t390 -153.5q86 0 175 21.5t157 56.5l26 -112q-82 -35 -183 -57.5t-214 -22.5 q-156 0 -271.5 46t-192.5 134t-116 214t-39 284z" />
<glyph unicode="D" horiz-adv-x="1404" d="M197 0v1382q80 0 182 3.5t205 3.5q170 0 303 -42t224 -126t139 -214.5t48 -304.5q0 -178 -58 -311t-161.5 -221t-246 -132t-312.5 -44q-104 0 -180 4q-51 3 -97 3q-24 0 -46 -1zM328 117q47 -6 106.5 -10.5t104.5 -4.5q137 0 251.5 35t197.5 107.5t128 184t45 265.5 q0 297 -150.5 442.5t-443.5 145.5q-59 0 -126.5 -2t-112.5 -4v-1159z" />
<glyph unicode="E" horiz-adv-x="1040" d="M197 0v1382h682v-106h-551v-510h524v-104h-524v-553h551v-109h-682z" />
<glyph unicode="F" horiz-adv-x="964" d="M197 0v1382h680v-106h-549v-512h520v-107h-520v-657h-131z" />
<glyph unicode="G" horiz-adv-x="1406" d="M98 666q0 166 49.5 301t137.5 227t221 148.5t317 56.5q98 0 190.5 -15.5t186.5 -44.5l-31 -118q-88 35 -179 52t-185 17q-117 0 -216.5 -32.5t-178 -107.5t-125.5 -192.5t-47 -269.5q0 -143 39.5 -253.5t113.5 -186.5t178.5 -115t229.5 -39q84 0 154.5 11.5t138.5 33.5 v551h131v-631q-104 -39 -222 -57t-223 -18q-156 0 -283.5 46t-213.5 133t-134.5 214t-48.5 289z" />
<glyph unicode="H" horiz-adv-x="1445" d="M197 0v1382h131v-610h790v610h131v-1382h-131v664h-790v-664h-131z" />
<glyph unicode="I" horiz-adv-x="524" d="M197 0v1382h131v-1382h-131z" />
<glyph unicode="J" horiz-adv-x="665" d="M2 4v121q31 -10 72 -18.5t80 -8.5q45 0 78.5 11.5t57 40t36 77.5t12.5 127v1028h133v-1040q0 -174 -76 -264t-252 -90q-37 0 -74.5 5t-66.5 11z" />
<glyph unicode="K" horiz-adv-x="1177" d="M197 0v1382h131v-669l622 669h166l-639 -669l660 -713h-187l-622 700v-700h-131z" />
<glyph unicode="L" horiz-adv-x="870" d="M197 0v1382h131v-1273h528v-109h-659z" />
<glyph unicode="M" horiz-adv-x="1832" d="M125 0l192 1382h172l336 -985q16 -47 39 -119.5t41 -144.5h2q20 70 38 128t38 120l342 1001h180l203 -1382h-137l-129 897q-16 123 -27.5 209t-17.5 141h-4q-10 -39 -25.5 -94t-40.5 -125l-348 -1028h-158l-329 965q-29 84 -49.5 153.5t-36.5 128.5h-3q-6 -82 -15 -169 t-21 -195l-107 -883h-135z" />
<glyph unicode="N" horiz-adv-x="1462" d="M197 0v1382h176l610 -962q43 -68 84 -136.5t82 -144.5q-2 78 -5 201t-5 257t-3 225t-1 204v356h131v-1382h-179l-616 975q-43 70 -83 136.5t-77 139.5q2 -51 5 -162.5t5.5 -228.5t4.5 -358v-502h-129z" />
<glyph unicode="O" horiz-adv-x="1445" d="M98 678q0 174 51.5 308t138.5 226.5t203.5 139.5t247.5 47q141 0 255 -46t192 -135.5t120 -218t42 -294.5q0 -174 -51.5 -308.5t-138.5 -226.5t-204.5 -139t-248.5 -47q-154 0 -267.5 50t-189.5 141t-113 219t-37 284zM240 705q0 -135 29.5 -247t89 -192t150.5 -125 t212 -45q96 0 184 39t154.5 113t106.5 183.5t40 250.5q0 291 -127 448.5t-356 157.5q-96 0 -184 -39t-155 -113.5t-105.5 -183t-38.5 -247.5z" />
<glyph unicode="P" horiz-adv-x="1062" d="M197 0v1382q141 6 315 7q115 0 203 -29t147.5 -80t90 -122t30.5 -157q0 -102 -41 -184t-112.5 -141.5t-168 -91t-206.5 -31.5q-66 0 -127 6v-559h-131zM328 672q31 -4 65.5 -7t71.5 -3q178 2 279.5 89t101.5 228q0 147 -88 224t-271 77h-86t-73 -4v-604z" />
<glyph unicode="Q" horiz-adv-x="1443" d="M98 678q0 174 51.5 308t138.5 226.5t203.5 139.5t247.5 47q141 0 255 -46t192 -135.5t120 -218.5t42 -292q0 -135 -31 -246t-90 -201q-18 -29 -44 -58.5t-58.5 -57t-71.5 -50t-76 -37.5q57 0 106.5 -14t102.5 -30.5t116 -28.5q31 -5 68 -5q36 0 76 5v-121q-57 -7 -104 -7 q-24 0 -44 2q-63 5 -115.5 18t-96.5 31.5t-92 36t-106.5 29t-133.5 11.5h-49q-154 0 -267.5 50t-189.5 141t-113 219t-37 284zM240 705q0 -135 29.5 -247t89 -192t150.5 -125t214 -45q98 0 184 39t152.5 113t106.5 183.5t40 248.5q0 293 -127 450.5t-356 157.5 q-96 0 -184 -39t-155 -113.5t-105.5 -183t-38.5 -247.5z" />
<glyph unicode="R" horiz-adv-x="1114" d="M197 0v1382q63 2 131.5 4.5t177.5 2.5q94 0 175 -17.5t141.5 -57.5t95 -105.5t34.5 -159.5q0 -96 -36.5 -168t-100 -121t-145.5 -75t-170 -28q31 -35 64.5 -71.5t60.5 -71.5l413 -514h-174l-510 653h-26v-653h-131zM328 758q18 -2 51 -3t82 -1q170 0 262 75.5t92 196.5 q0 145 -90 201.5t-256 56.5q-41 0 -74 -1t-67 -5v-520z" />
<glyph unicode="S" horiz-adv-x="1032" d="M119 1024q0 80 29.5 148.5t88 118.5t143.5 79t195 29q63 0 128 -7.5t120 -19.5l-16 -119q-55 16 -117.5 26.5t-122.5 10.5q-160 0 -237.5 -68.5t-77.5 -183.5q0 -84 49 -134t123 -86t159 -66.5t158.5 -74.5t122.5 -110.5t49 -175.5q0 -90 -34.5 -164.5t-99 -129t-157 -84 t-204.5 -29.5q-80 0 -156 10t-137 29l22 129q66 -25 137.5 -39.5t143.5 -14.5q70 0 133.5 15.5t110.5 48.5t75.5 85t28.5 128q0 86 -49 137t-122 87t-158 66.5t-157.5 74.5t-121.5 109.5t-49 174.5z" />
<glyph unicode="T" horiz-adv-x="1064" d="M39 1274v108h987v-108h-428v-1274h-131v1274h-428z" />
<glyph unicode="U" horiz-adv-x="1435" d="M197 455v927h131v-913q0 -78 15 -146.5t58 -119.5t118 -82t194 -31q98 0 173 22.5t125 71.5t74.5 129t24.5 197v872h129v-860q0 -264 -134 -401t-405 -137q-160 0 -258 41t-153.5 107.5t-73.5 151.5t-18 171z" />
<glyph unicode="V" horiz-adv-x="1249" d="M33 1382h151l336 -946q23 -61 49.5 -140t48.5 -153h3q23 72 49 150t55 156l350 933h137l-526 -1382h-141z" />
<glyph unicode="W" horiz-adv-x="1951" d="M84 1382h141l264 -997q20 -72 34 -131t26 -125h2q12 61 26.5 122.5t30.5 121.5l287 1009h164l301 -1026q16 -53 30.5 -111.5t24.5 -115.5h2q10 53 20.5 100t24.5 97l275 1056h129l-371 -1382h-166l-305 1049q-16 55 -29.5 107t-23.5 99h-2q-8 -51 -20.5 -102t-28.5 -106 l-295 -1047h-166z" />
<glyph unicode="X" horiz-adv-x="1183" d="M45 0l463 715l-434 667h153l359 -563l354 563h150l-428 -655l477 -727h-164l-391 616l-387 -616h-152z" />
<glyph unicode="Y" horiz-adv-x="1062" d="M29 1382h145l246 -514q31 -63 58.5 -125.5t51.5 -124.5h2q27 66 59 134.5t64 136.5l240 493h139l-442 -878v-504h-131v504z" />
<glyph unicode="Z" horiz-adv-x="1105" d="M96 0v92l637 985q35 53 65.5 98.5t65.5 94.5q-59 -2 -144 -3t-196 -1h-405v116h889v-94l-672 -1034q-23 -35 -45.5 -69.5t-46.5 -69.5q37 4 135 4h242h395v-119h-920z" />
<glyph unicode="[" horiz-adv-x="651" d="M197 -399v1970h372v-96h-252v-1774h252v-100h-372z" />
<glyph unicode="\" horiz-adv-x="849" d="M31 1550h119l716 -1880h-118z" />
<glyph unicode="]" horiz-adv-x="651" d="M80 -299h254v1774h-254v96h373v-1970h-373v100z" />
<glyph unicode="^" d="M145 762l340 620h111l356 -618l-100 -53l-315 569l-299 -569z" />
<glyph unicode="_" d="M0 -414h1126v-100h-1126v100z" />
<glyph unicode="`" horiz-adv-x="749" d="M186 1425l86 84l244 -258l-67 -67z" />
<glyph unicode="a" horiz-adv-x="1062" d="M109 248q0 76 39.5 139.5t118.5 109.5t197 71.5t271 25.5v78q0 125 -52 191.5t-189 66.5q-74 0 -157 -21.5t-144 -56.5l-33 109q72 33 164 53t190 20q102 0 170 -24.5t107.5 -68.5t56 -103.5t16.5 -128.5v-394q0 -78 1 -161.5t3 -153.5h-131q0 61 2 119.5t11 103.5l-5 2 q-37 -100 -131 -170.5t-229 -70.5q-119 0 -197.5 70.5t-78.5 193.5zM240 268q0 -78 48 -128t128 -50q72 0 131 33t101 87t64.5 121.5t22.5 137.5v25q-145 0 -240.5 -19.5t-151.5 -50.5t-79.5 -72t-23.5 -84z" />
<glyph unicode="b" horiz-adv-x="1142" d="M197 25v1470h129v-534q0 -41 -4.5 -93.5t-14.5 -91.5l4 -2q43 123 138.5 191.5t218.5 68.5q180 0 278 -119.5t98 -359.5q0 -139 -36.5 -244.5t-105 -177.5t-164 -108.5t-212.5 -36.5q-102 0 -177 9t-152 28zM326 121q47 -16 99 -23.5t114 -7.5q168 0 269 106.5t101 346.5 q0 182 -63.5 284.5t-198.5 102.5q-82 0 -142.5 -43t-100 -107.5t-59 -142.5t-19.5 -145v-371z" />
<glyph unicode="c" horiz-adv-x="907" d="M94 473q0 127 31 229.5t91 175t149.5 112.5t205.5 40q158 0 271 -47l-29 -106q-53 20 -121.5 35.5t-140.5 15.5q-78 0 -137.5 -32t-99.5 -89t-61.5 -136t-21.5 -171q0 -82 14.5 -156t50.5 -129t99.5 -87t161.5 -32q72 0 138.5 14.5t125.5 41.5l27 -105q-68 -29 -151 -44 t-167 -15q-80 0 -158.5 20.5t-140 74.5t-99.5 148.5t-38 241.5z" />
<glyph unicode="d" horiz-adv-x="1138" d="M94 463q0 137 37 243.5t105.5 178t164 108.5t211.5 37q90 0 201 -12v477h129v-1495h-131q0 25 1 55.5t3 62.5t6 61.5t8 53.5l-4 3q-41 -117 -136 -184.5t-218 -67.5q-193 0 -285 128t-92 351zM231 475q0 -182 62.5 -284.5t198.5 -102.5q82 0 142 43t100 107.5t59.5 142.5 t19.5 145v375q-106 27 -213 27q-168 0 -268.5 -106.5t-100.5 -346.5z" />
<glyph unicode="e" horiz-adv-x="1030" d="M94 506q0 113 30 210t87 167.5t138 110.5t186 40q104 0 177.5 -32.5t121 -91t70 -131t22.5 -154.5v-28.5t-4 -45.5h-691q-1 -20 -1 -39q0 -97 18 -169q20 -87 64 -142.5t112 -81t158 -25.5q74 0 147.5 15.5t138.5 44.5l25 -109q-72 -29 -158 -45t-182 -16 q-223 0 -341 126t-118 396zM240 645h548v14q0 120 -68 194q-72 79 -194 79q-113 0 -189.5 -76t-96.5 -211z" />
<glyph unicode="f" horiz-adv-x="708" d="M12 915v103h234v69q0 215 100 316.5t279 101.5q84 0 168 -18l-13 -111q-41 12 -83 17.5t-83 5.5q-127 0 -183 -75t-56 -232v-74h313v-103h-313v-915h-129v915h-234z" />
<glyph unicode="g" horiz-adv-x="1099" d="M90 -225q0 98 54.5 169.5t127.5 114.5q-47 20 -74.5 60.5t-27.5 89.5q0 51 28.5 94t80.5 70q-72 43 -111 112.5t-39 171.5q0 76 27.5 143.5t82 120t132.5 83t178 30.5q37 0 64.5 -4t64.5 -12h346v-103h-193q49 -37 77 -96t28 -133q0 -78 -25.5 -145.5t-79 -117.5 t-133.5 -80t-186 -30q-37 0 -67.5 4.5t-61.5 14.5q-39 -16 -59.5 -44t-20.5 -57q0 -47 46 -66.5t143 -23.5l206 -8q166 -6 252 -83t86 -206q0 -80 -39 -148.5t-108.5 -118.5t-165.5 -78.5t-211 -28.5q-190 0 -306 79.5t-116 225.5zM223 -205q0 -53 23.5 -93t65.5 -68.5 t99.5 -43t125.5 -14.5q178 0 272 70.5t94 179.5q0 88 -59.5 138t-181.5 54l-213 9h-70q-72 -47 -114 -104.5t-42 -127.5zM260 670q0 -123 70.5 -189.5t199.5 -66.5q127 0 201 67.5t74 190.5t-68.5 192.5t-195.5 69.5q-135 0 -208 -76t-73 -188z" />
<glyph unicode="h" horiz-adv-x="1185" d="M197 0v1495h129v-514q0 -53 -3.5 -108.5t-13.5 -94.5l4 -2q45 119 139.5 188.5t229.5 69.5q88 0 147.5 -25.5t94 -69.5t50 -103.5t15.5 -126.5v-709h-129v659q0 127 -44 199t-163 72q-72 0 -132 -33t-103 -92.5t-67.5 -141t-24.5 -178.5v-485h-129z" />
<glyph unicode="i" horiz-adv-x="522" d="M170 1348q0 39 26.5 65.5t65.5 26.5t65.5 -25.5t26.5 -66.5q0 -37 -26.5 -65t-65.5 -28t-65.5 27t-26.5 66zM197 0v1018h129v-1018h-129z" />
<glyph unicode="j" horiz-adv-x="538" d="M-115 -510l15 117q29 -10 63.5 -17.5t69.5 -7.5q55 0 90 12.5t54.5 43t27.5 83t8 132.5v1165h129v-1157q0 -102 -15.5 -175t-52 -121t-98 -70.5t-153.5 -22.5q-35 0 -72 4t-66 14zM186 1348q0 39 27 65.5t66 26.5t65.5 -25.5t26.5 -66.5q0 -37 -27 -65t-65 -28 q-39 0 -66 27t-27 66z" />
<glyph unicode="k" horiz-adv-x="968" d="M197 0v1495h129v-940l401 463h156l-414 -463l449 -555h-173l-419 541v-541h-129z" />
<glyph unicode="l" horiz-adv-x="522" d="M197 0v1495h129v-1495h-129z" />
<glyph unicode="m" horiz-adv-x="1818" d="M197 0v1018h131q0 -53 -4.5 -121t-14.5 -117l4 -2q43 117 139.5 186.5t225.5 69.5q90 0 146.5 -28.5t87 -69.5t41 -84t10.5 -70q12 37 39.5 80t71.5 82t105.5 64.5t141.5 25.5q143 0 222 -76.5t79 -250.5v-707h-129v659q0 61 -8 111.5t-30.5 85.5t-60.5 54.5t-98 19.5 q-63 0 -121.5 -31t-103.5 -88t-71.5 -141t-26.5 -189v-481h-129v662q0 55 -7.5 103t-29 85t-59 58.5t-101.5 21.5q-68 0 -126 -33t-101 -92.5t-68.5 -142t-25.5 -181.5v-481h-129z" />
<glyph unicode="n" horiz-adv-x="1185" d="M197 0v1018h131q0 -53 -4.5 -122t-14.5 -116l4 -2q43 117 138.5 186.5t230.5 69.5q88 0 147.5 -25.5t94 -69.5t50 -103.5t15.5 -126.5v-709h-129v659q0 127 -44 199t-163 72q-72 0 -132 -33t-103 -92.5t-67.5 -141t-24.5 -178.5v-485h-129z" />
<glyph unicode="o" horiz-adv-x="1105" d="M90 506q0 106 32 202.5t92 168t149.5 114.5t203.5 43q88 0 169 -26.5t142.5 -86t97.5 -158t36 -239.5q0 -111 -33 -209t-94.5 -171.5t-150.5 -116.5t-202 -43q-203 0 -322.5 127t-119.5 395zM225 516q0 -205 85 -315.5t245 -110.5q63 0 121.5 24.5t103.5 77t72 133 t27 193.5q0 193 -82 302.5t-244 109.5q-63 0 -121.5 -24.5t-104.5 -76t-74 -129t-28 -184.5z" />
<glyph unicode="p" horiz-adv-x="1142" d="M197 -514v1532h131q0 -25 -1 -55.5t-3 -62.5t-5.5 -62.5t-9.5 -53.5l4 -2q43 117 137.5 184.5t217.5 67.5q180 0 278 -119.5t98 -359.5q0 -139 -36.5 -244.5t-104 -176.5t-163 -107.5t-212.5 -36.5q-57 0 -102 2t-100 10v-516h-129zM326 121q47 -16 99 -23.5t114 -7.5 q168 0 269 106.5t101 346.5q0 182 -63.5 284.5t-198.5 102.5q-82 0 -142.5 -43t-100 -107.5t-59 -142.5t-19.5 -145v-371z" />
<glyph unicode="q" horiz-adv-x="1142" d="M98 463q0 137 37 243.5t105.5 178t165 108.5t217.5 37q80 0 162.5 -7t160.5 -19v-1518h-129v577q0 29 2 77t12 93l-4 3q-41 -117 -135 -184.5t-217 -67.5q-180 0 -278.5 118.5t-98.5 360.5zM236 475q0 -182 62 -284.5t198 -102.5q82 0 142 43t100 107.5t59.5 142.5 t19.5 145v377q-104 27 -213 27q-168 0 -268 -107.5t-100 -347.5z" />
<glyph unicode="r" horiz-adv-x="724" d="M197 0v1018h131q0 -53 -6.5 -126t-20.5 -140l4 -2q14 57 42 112.5t73 95.5q46 40 108 62q43 15 95 16q24 0 51 -4l-6 -125q-30 5 -57 5q-132 0 -201 -109q-84 -131 -84 -397v-406h-129z" />
<glyph unicode="s" horiz-adv-x="882" d="M117 743q0 127 97 209t288 82q49 0 103 -6t102 -16l-17 -111q-47 14 -100 22.5t-107 8.5q-119 0 -177 -47t-58 -127q0 -66 38 -100.5t96 -56t124.5 -38t125 -45.5t96.5 -80t38 -139q0 -66 -28.5 -123t-82 -100t-131.5 -67.5t-176 -24.5q-59 0 -119.5 6t-107.5 20l18 123 q49 -18 110.5 -28.5t121.5 -10.5q115 0 188.5 50.5t73.5 136.5q0 66 -38 100.5t-95.5 55t-125 36.5t-124.5 46t-95 81t-38 143z" />
<glyph unicode="t" horiz-adv-x="755" d="M2 915v103h231v344l129 35v-379h314v-103h-314v-571q0 -74 7.5 -121t26 -74.5t50 -38t78.5 -10.5q80 0 142 17l18 -111q-41 -10 -94 -15t-101 -5q-74 0 -124 17t-78.5 53t-41 91.5t-12.5 133.5v634h-231z" />
<glyph unicode="u" horiz-adv-x="1185" d="M197 309v709h129v-660q0 -127 43 -198.5t163 -71.5q72 0 132.5 33t103.5 92t67.5 141t24.5 178v486h129v-1018h-131q0 53 4 121.5t15 116.5l-5 2q-43 -117 -138 -186.5t-230 -69.5q-88 0 -147.5 25.5t-94.5 69.5t-50 103.5t-15 126.5z" />
<glyph unicode="v" horiz-adv-x="964" d="M25 1018h147l254 -711q16 -47 29.5 -87t25.5 -83h2q12 41 25.5 82t30.5 82l260 717h143l-395 -1018h-135z" />
<glyph unicode="w" horiz-adv-x="1619" d="M41 1018h147l189 -656q18 -66 36.5 -128t30.5 -109h2q14 57 32 117.5t36 119.5l211 656h156l213 -653q16 -49 27.5 -85t19.5 -64t14 -49.5t12 -43.5h2q14 55 31 107.5t39 129.5l199 658h139l-334 -1018h-153l-242 705q-33 96 -55 186h-2q-16 -66 -36 -128.5t-40 -127.5 l-201 -635h-156z" />
<glyph unicode="x" horiz-adv-x="1048" d="M55 0l391 508l-370 510h164l288 -416l297 416h150l-375 -502l391 -516h-174l-299 426l-299 -426h-164z" />
<glyph unicode="y" horiz-adv-x="950" d="M-59 -518l14 119q23 -8 55.5 -12.5t61.5 -4.5q45 0 85 13.5t75.5 46t69.5 89t67 142.5l49 125l-393 1018h151l230 -627q27 -72 44 -126t33 -109h2q12 47 41 132t62 177l196 553h142l-424 -1122q-45 -117 -90 -198t-99.5 -132t-120 -73.5t-149.5 -22.5q-25 0 -52.5 4 t-49.5 8z" />
<glyph unicode="z" horiz-adv-x="911" d="M100 0v90l545 817q-53 -2 -134 -3t-171 -1h-229v115h680v-88l-541 -815q25 0 61.5 1t79.5 2t86 1h84h240v-119h-701z" />
<glyph unicode="{" horiz-adv-x="667" d="M61 600v107q68 4 112 16t68.5 37.5t35 66.5t10.5 101v284q0 72 13 136.5t45 113.5t86 79t138 30h33v-96q-111 0 -153.5 -56.5t-42.5 -197.5v-283q0 -117 -46.5 -189.5t-144.5 -93.5v-2q98 -16 144.5 -92t46.5 -192v-416q0 -141 43 -196.5t153 -55.5v-100h-33 q-158 0 -220 93t-62 267v416q0 57 -10.5 98t-37 67.5t-69.5 40t-109 17.5z" />
<glyph unicode="|" horiz-adv-x="579" d="M238 -514v2048h102v-2048h-102z" />
<glyph unicode="}" horiz-adv-x="659" d="M82 -299q111 0 154 55.5t43 196.5v416q0 117 46 192.5t144 91.5v2q-100 14 -145 88t-45 185v293q0 141 -43 197.5t-154 56.5v96h33q82 0 137 -30t87 -79t45 -113.5t13 -136.5v-274q0 -63 10.5 -106.5t35 -70t67.5 -38.5t111 -16v-107q-66 -4 -108 -17.5t-68.5 -40 t-37 -67.5t-10.5 -98v-416q0 -174 -62.5 -267t-219.5 -93h-33v100z" />
<glyph unicode="~" d="M129 913v9q0 123 66.5 201.5t181.5 78.5q84 0 132 -37t84 -80t71.5 -79.5t97.5 -36.5q74 0 107.5 55t35.5 139h96v-10q0 -123 -66.5 -202t-180.5 -79q-84 0 -132.5 37t-84 80t-71.5 80t-97 37q-74 0 -108 -55.5t-36 -137.5h-96z" />
<glyph unicode="&#xa1;" horiz-adv-x="651" d="M209 936q0 41 28.5 69.5t69.5 28.5t68.5 -28.5t27.5 -69.5t-27.5 -68.5t-68.5 -27.5t-69.5 27.5t-28.5 68.5zM229 -414l25 1116h104l25 -1116h-154z" />
<glyph unicode="&#xa2;" horiz-adv-x="935" d="M92 567q0 98 29 183.5t82 150t129 104t172 52.5v186h104v-182q59 -2 118.5 -13.5t117.5 -33.5l-10 -117q-109 57 -252 57q-166 0 -261.5 -101t-95.5 -282q0 -76 17.5 -144.5t59.5 -120.5t109.5 -82.5t168.5 -30.5q70 0 139 19t121 50l10 -117q-47 -23 -108.5 -39 t-133.5 -22v-223h-104v223q-197 16 -304.5 138t-107.5 345z" />
<glyph unicode="&#xa3;" horiz-adv-x="956" d="M61 688v100h220q-10 66 -18.5 134.5t-8.5 121.5q0 170 95 262.5t274 92.5q47 0 101 -6.5t101 -22.5l-22 -113q-45 16 -96.5 25.5t-98.5 9.5q-106 0 -165.5 -58t-59.5 -169q0 -41 7 -113.5t22 -163.5h331v-100h-319q12 -98 12 -166q0 -72 -9 -127t-30.5 -103t-59.5 -93 t-95 -95q41 4 95 7.5t105 3.5h449v-115h-803v92q63 51 106.5 98.5t69 96.5t35.5 102t10 119q0 31 -3 73t-11 107h-234z" />
<glyph unicode="&#xa4;" d="M147 209l156 190q-41 47 -64.5 116t-23.5 161q0 164 98 262l-163 203l88 67l155 -213q41 23 87 34t95 11q43 0 92.5 -9t92.5 -36l162 213l86 -69l-170 -209q35 -39 54 -99.5t19 -146.5q0 -154 -86 -250l183 -223l-90 -70l-170 228q-88 -59 -199 -60q-90 0 -160 33 l-149 -201zM336 680q0 -55 11 -104.5t39 -86t73 -58t110 -21.5q43 0 83 19.5t71 55t49.5 86t18.5 113.5q0 53 -12.5 100t-40 82t-72.5 54.5t-111 19.5q-94 0 -156.5 -70.5t-62.5 -189.5z" />
<glyph unicode="&#xa5;" horiz-adv-x="1198" d="M100 1382h146l246 -512q35 -68 60.5 -130t47.5 -126h2q29 72 58.5 141.5t64.5 137.5l244 489h137l-410 -813h320v-96h-352v-158h352v-96h-352v-219h-132v219h-350v96h350v158h-350v96h320z" />
<glyph unicode="&#xa6;" horiz-adv-x="579" d="M238 260h102v-774h-102v774zM238 780v754h102v-754h-102z" />
<glyph unicode="&#xa7;" horiz-adv-x="1050" d="M168 713q0 162 162 286q-37 51 -58.5 102.5t-21.5 110.5q0 61 20.5 114.5t60.5 93.5t100.5 62.5t141.5 22.5q33 0 72 -4t72 -14l-12 -111q-41 12 -72 17.5t-68 5.5q-92 0 -137 -47t-45 -125q0 -59 35 -116.5t87 -115t112.5 -118t112.5 -125t87 -136t35 -153.5 q0 -162 -162 -285q37 -49 58.5 -101t21.5 -112q0 -59 -21.5 -113.5t-63.5 -95.5t-104.5 -65.5t-144.5 -24.5q-33 0 -73.5 5t-81.5 18l12 110q47 -14 81 -20t72 -6q92 0 141.5 51t49.5 129q0 59 -35 115.5t-87 114t-112.5 116.5t-112.5 123.5t-87 136.5t-35 154zM295 731 q0 -63 30.5 -122.5t79 -118t105.5 -116t113 -116.5q55 39 78.5 89t23.5 99q0 63 -30.5 124t-79 118t-105.5 114.5t-111 117.5q-57 -39 -80.5 -90.5t-23.5 -98.5z" />
<glyph unicode="&#xa8;" horiz-adv-x="1118" d="M266 1348q0 39 24.5 63.5t63.5 24.5q37 0 62.5 -24.5t25.5 -63.5q0 -37 -25.5 -62.5t-62.5 -25.5q-39 0 -63.5 25.5t-24.5 62.5zM643 1348q0 39 25.5 63.5t62.5 24.5t62.5 -24.5t25.5 -63.5q0 -37 -25.5 -62.5t-62.5 -25.5t-62.5 25.5t-25.5 62.5z" />
<glyph unicode="&#xa9;" horiz-adv-x="1540" d="M86 686q0 141 53.5 264t145.5 214t216 144.5t265 53.5t265 -52.5t215 -143.5t144.5 -213t53.5 -263t-53.5 -264t-145.5 -215t-215 -145.5t-264 -53.5q-145 0 -269 52.5t-215.5 143.5t-143.5 214t-52 264zM197 690q0 -119 45 -224.5t121.5 -183t180 -123.5t222.5 -46 t222.5 45t180 122.5t121.5 182t45 223.5q0 117 -45 222.5t-121.5 183t-180 124t-222.5 46.5t-222.5 -45.5t-180 -122t-121.5 -181t-45 -223.5zM446 676q0 72 18.5 140.5t60.5 120.5t109.5 84t166.5 32q45 0 84 -7.5t73 -17.5l-8 -100q-76 33 -159 33q-63 0 -106.5 -21.5 t-70 -59.5t-38 -88.5t-11.5 -107.5q0 -125 51.5 -193.5t165.5 -68.5q92 0 172 31l11 -97q-45 -16 -96.5 -23t-100.5 -7q-90 0 -150.5 26.5t-99.5 74.5t-55.5 111.5t-16.5 137.5z" />
<glyph unicode="&#xaa;" horiz-adv-x="774" d="M113 879q0 102 100 170.5t297 66.5v43q0 20 -4 46t-19.5 46.5t-44 34.5t-75.5 14q-57 0 -111.5 -15t-97.5 -38l-8 107q47 20 108 31.5t125 11.5q70 0 116 -18.5t73.5 -49.5t39 -70.5t11.5 -82.5v-265v-129q0 -37 2 -53h-119q0 25 2 55.5t8 59.5l-4 2q-8 -25 -28.5 -47.5 t-48 -41t-61.5 -29.5t-69 -11q-100 0 -146 45t-46 117zM127 485v103h557v-103h-557zM229 897q0 -39 25 -61.5t72 -22.5q49 0 84.5 23.5t57 55.5t32 66.5t10.5 57.5v18q-154 0 -217.5 -38t-63.5 -99z" />
<glyph unicode="&#xab;" horiz-adv-x="1007" d="M129 602l242 352l92 -57l-199 -293l199 -289l-96 -59zM485 602l258 350l93 -57l-215 -291l217 -289l-97 -57z" />
<glyph unicode="&#xac;" d="M90 555v109h887v-441h-111v332h-776z" />
<glyph unicode="&#xad;" horiz-adv-x="669" d="M100 549v106h469v-106h-469z" />
<glyph unicode="&#xae;" horiz-adv-x="1148" d="M143 1079q0 88 34 167t92.5 138.5t136 93t167.5 33.5q92 0 171 -32.5t137.5 -91t91.5 -137.5t33 -171q0 -88 -35 -165.5t-94.5 -136t-137 -93.5t-166.5 -35q-92 0 -169.5 34t-136 92.5t-91.5 136t-33 167.5zM240 1083q0 -70 26.5 -131t71.5 -108t105.5 -75t129.5 -28 q70 0 131.5 27t106.5 72t70.5 106t25.5 131t-25.5 131.5t-70.5 108.5t-106.5 74.5t-131.5 27.5t-130 -26.5t-105 -71.5t-71.5 -106.5t-26.5 -131.5zM434 846v475h144q86 0 121.5 -34t35.5 -87q0 -59 -33.5 -95t-91.5 -42q8 -10 20.5 -27.5t26.5 -38.5l99 -151h-103l-131 209 h-6v-209h-82zM516 1110h33q57 0 78.5 25.5t21.5 54.5q0 35 -17.5 50t-62.5 15h-53v-145z" />
<glyph unicode="&#xaf;" horiz-adv-x="808" d="M160 1288v98h489v-98h-489z" />
<glyph unicode="&#xb0;" horiz-adv-x="751" d="M125 1255q0 57 21.5 103.5t56.5 79t81 49t93 16.5q61 0 107 -19.5t77 -53t46.5 -76.5t15.5 -92q0 -55 -21.5 -100.5t-57.5 -77t-82 -49t-95 -17.5q-111 0 -176.5 64.5t-65.5 172.5zM233 1260q0 -72 39 -112t99 -40q61 0 102 42t41 110q0 25 -6 52t-22.5 49.5t-44 37 t-68.5 14.5q-59 0 -99.5 -42t-40.5 -111z" />
<glyph unicode="&#xb1;" d="M90 672v108h412v418h123v-418h411v-108h-411v-422h-123v422h-412zM92 0v109h942v-109h-942z" />
<glyph unicode="&#xb2;" horiz-adv-x="704" d="M86 758v90l221 221q86 84 118 146.5t32 121.5q0 72 -39 119t-121 47q-51 0 -98 -14t-82 -37l-21 94q43 23 101.5 39.5t124.5 16.5q131 0 196.5 -70t65.5 -174q0 -84 -41 -164t-133 -168l-168 -164q74 4 172 4h211v-108h-539z" />
<glyph unicode="&#xb3;" horiz-adv-x="679" d="M84 760l16 106q33 -10 73 -17t85 -7q94 0 144.5 42t50.5 111q0 78 -75 119t-237 21v96q137 0 209 33.5t72 119.5q0 55 -41 88t-107 33q-45 0 -83.5 -10t-77.5 -27l-15 97q100 37 201 37q109 0 178.5 -52.5t69.5 -150.5q0 -150 -150 -197q84 -14 133.5 -69t49.5 -127 q0 -59 -26 -107.5t-71 -82.5t-106.5 -53.5t-134.5 -19.5q-76 0 -158 17z" />
<glyph unicode="&#xb4;" horiz-adv-x="788" d="M233 1251l244 258l84 -84l-262 -241z" />
<glyph unicode="&#xb6;" horiz-adv-x="1153" d="M152 963q0 88 30.5 164.5t88 133t137 89t178.5 32.5v-850q-111 0 -192 34t-135 92.5t-80.5 137t-26.5 167.5zM582 -100h155v1482h277v-96h-152v-1483h-280v97z" />
<glyph unicode="&#xb7;" horiz-adv-x="428" d="M111 608q0 45 29.5 75t74.5 30q43 0 73.5 -30t30.5 -75t-30.5 -74.5t-73.5 -29.5q-45 0 -74.5 29.5t-29.5 74.5z" />
<glyph unicode="&#xb8;" horiz-adv-x="819" d="M373 -483q43 53 68.5 98t31.5 85t-7 79t-50 82l116 55q78 -98 60.5 -194.5t-105.5 -204.5h-114z" />
<glyph unicode="&#xb9;" horiz-adv-x="534" d="M37 1501l235 86h99v-829h-123v712l-189 -75z" />
<glyph unicode="&#xba;" horiz-adv-x="849" d="M111 1061q0 72 23.5 134t64.5 107.5t99 71t128 25.5q49 0 103.5 -13.5t98.5 -50.5t72.5 -101.5t28.5 -164.5q0 -78 -23.5 -142.5t-66.5 -110.5t-103.5 -71.5t-132.5 -25.5q-133 0 -212.5 77.5t-79.5 264.5zM141 485v103h559v-103h-559zM238 1061q0 -43 7 -85t26.5 -76 t54 -55.5t88.5 -21.5q84 0 135 59.5t51 186.5q0 41 -8 81t-28.5 72.5t-55.5 52t-86 19.5q-35 0 -67.5 -13t-59.5 -41t-42 -72t-15 -107z" />
<glyph unicode="&#xbb;" horiz-adv-x="1007" d="M168 313l217 293l-213 287l94 59l254 -344l-260 -350zM543 313l200 293l-198 289l96 59l238 -346l-244 -352z" />
<glyph unicode="&#xbc;" horiz-adv-x="1419" d="M109 1313l188 69h96v-663h-117v555l-147 -60zM152 20l964 1403l88 -61l-966 -1403zM754 221l278 443h158v-426h110v-93h-110v-145h-113v145h-317zM864 236q20 0 50 1t61 1h57h45v335z" />
<glyph unicode="&#xbd;" horiz-adv-x="1476" d="M109 1313l188 69h96v-663h-117v555l-147 -60zM152 20l964 1403l88 -61l-966 -1403zM889 0v86l168 166q68 66 92.5 113t24.5 94q0 53 -30 86t-89 33q-41 0 -77 -11.5t-65 -29.5l-16 94q37 16 84 28.5t100 12.5q109 0 161 -54.5t52 -138.5q0 -66 -32.5 -127t-104.5 -133 l-125 -119q59 4 133 4h160v-104h-436z" />
<glyph unicode="&#xbe;" horiz-adv-x="1458" d="M133 721l14 94q27 -10 53.5 -15t59.5 -5q59 0 99 32.5t40 87.5t-53 87t-182 16v82q111 0 169 27.5t58 93.5q0 41 -27.5 63.5t-76.5 22.5q-35 0 -68 -8.5t-61 -22.5l-13 88q41 16 82 22.5t84 6.5q92 0 143.5 -41t51.5 -119q0 -123 -121 -160q63 -6 98 -52t35 -99 q0 -98 -71.5 -155.5t-188.5 -57.5q-63 0 -125 12zM190 20l967 1403l88 -61l-966 -1403zM793 221l278 443h158v-426h110v-93h-110v-145h-113v145h-315zM903 236q20 0 50 1t61 1h57h45v335z" />
<glyph unicode="&#xbf;" horiz-adv-x="903" d="M143 -45q0 84 32 143.5t76 107.5t92 93t82 100.5t45 127t-19 175.5h127q33 -104 23.5 -181t-42.5 -135t-80 -105.5t-90 -94.5t-73.5 -98t-30.5 -119q0 -53 30.5 -101t86 -86t133 -61.5t174.5 -27.5l-17 -119q-125 6 -226 38t-173 84t-111 118.5t-39 140.5zM416 936 q0 41 28.5 69.5t69.5 28.5t69.5 -28.5t28.5 -69.5t-28.5 -68.5t-69.5 -27.5t-69.5 27.5t-28.5 68.5z" />
<glyph unicode="&#xc0;" horiz-adv-x="1245" d="M33 0l520 1382h141l518 -1382h-151l-125 352h-637l-129 -352h-137zM336 459h561l-217 596q-18 49 -33.5 94t-28.5 90h-2q-14 -45 -29.5 -91t-31.5 -89zM346 1618l47 111l336 -152l-31 -78z" />
<glyph unicode="&#xc1;" horiz-adv-x="1245" d="M33 0l520 1382h141l518 -1382h-151l-125 352h-637l-129 -352h-137zM336 459h561l-217 596q-18 49 -33.5 94t-28.5 90h-2q-14 -45 -29.5 -91t-31.5 -89zM498 1577l334 152l47 -111l-351 -119z" />
<glyph unicode="&#xc2;" horiz-adv-x="1245" d="M33 0l520 1382h141l518 -1382h-151l-125 352h-637l-129 -352h-137zM307 1573l311 172l318 -166l-47 -84l-277 133l-264 -133zM336 459h561l-217 596q-18 49 -33.5 94t-28.5 90h-2q-14 -45 -29.5 -91t-31.5 -89z" />
<glyph unicode="&#xc3;" horiz-adv-x="1245" d="M33 0l520 1382h141l518 -1382h-151l-125 352h-637l-129 -352h-137zM281 1587q76 137 211 137q51 0 88 -17t66.5 -38.5t58 -39t63.5 -17.5q78 0 135 94l72 -53q-39 -66 -92 -101.5t-119 -35.5q-51 0 -88 17t-67.5 38.5t-59.5 40t-63 18.5q-35 0 -70 -24.5t-64 -71.5z M336 459h561l-217 596q-18 49 -33.5 94t-28.5 90h-2q-14 -45 -29.5 -91t-31.5 -89z" />
<glyph unicode="&#xc4;" horiz-adv-x="1245" d="M33 0l520 1382h141l518 -1382h-151l-125 352h-637l-129 -352h-137zM316 1591q0 37 25.5 61.5t60.5 24.5q37 0 61.5 -24.5t24.5 -61.5q0 -35 -25 -60.5t-61 -25.5q-35 0 -60.5 25.5t-25.5 60.5zM336 459h561l-217 596q-18 49 -33.5 94t-28.5 90h-2q-14 -45 -29.5 -91 t-31.5 -89zM752 1591q0 37 24.5 61.5t61.5 24.5q35 0 60.5 -24.5t25.5 -61.5q0 -35 -25.5 -60.5t-60.5 -25.5q-37 0 -61.5 25.5t-24.5 60.5z" />
<glyph unicode="&#xc5;" horiz-adv-x="1245" d="M33 0l520 1382h141l518 -1382h-151l-125 352h-637l-129 -352h-137zM336 459h561l-217 596q-18 49 -33.5 94t-28.5 90h-2q-14 -45 -29.5 -91t-31.5 -89zM428 1652q0 41 16.5 78t45 63.5t65.5 42t78 15.5q86 0 143 -54t57 -136q0 -39 -16.5 -76t-45 -64.5t-65.5 -44 t-78 -16.5q-86 0 -143 53t-57 139zM522 1656q0 -47 30.5 -78.5t78.5 -31.5q45 0 75.5 31.5t30.5 78.5q0 45 -30.5 78t-75.5 33q-47 0 -78 -32.5t-31 -78.5z" />
<glyph unicode="&#xc6;" horiz-adv-x="1591" d="M-94 0l770 1382h127h604v-106h-537v-510h519v-104h-519v-553h562v-109h-693v354h-497l-195 -354h-141zM297 461h442v811h-4q-25 -51 -55.5 -111.5t-85.5 -163.5z" />
<glyph unicode="&#xc7;" horiz-adv-x="1218" d="M106 664q0 154 38 287.5t118 233t206 156t304 56.5q82 0 167 -12.5t163 -34.5l-25 -121q-162 57 -334 57q-133 0 -227 -48t-153.5 -130t-87 -191.5t-27.5 -230.5q0 -279 126 -432.5t390 -153.5q86 0 175 21.5t157 56.5l26 -112q-82 -35 -183 -57.5t-214 -22.5 q-156 0 -271.5 46t-192.5 134t-116 214t-39 284zM568 -483q43 53 68.5 98t31.5 85t-7 79t-50 82l116 55q78 -98 60.5 -194.5t-105.5 -204.5h-114z" />
<glyph unicode="&#xc8;" horiz-adv-x="1040" d="M197 0v1382h682v-106h-551v-510h524v-104h-524v-553h551v-109h-682zM266 1618l47 111l336 -152l-31 -78z" />
<glyph unicode="&#xc9;" horiz-adv-x="1040" d="M197 0v1382h682v-106h-551v-510h524v-104h-524v-553h551v-109h-682zM414 1577l334 152l47 -111l-351 -119z" />
<glyph unicode="&#xca;" horiz-adv-x="1040" d="M197 0v1382h682v-106h-551v-510h524v-104h-524v-553h551v-109h-682zM223 1573l311 172l318 -166l-47 -84l-277 133l-264 -133z" />
<glyph unicode="&#xcb;" horiz-adv-x="1040" d="M197 0v1382h682v-106h-551v-510h524v-104h-524v-553h551v-109h-682zM222 1591q0 37 25.5 61.5t60.5 24.5q37 0 61.5 -24.5t24.5 -61.5q0 -35 -25 -60.5t-61 -25.5q-35 0 -60.5 25.5t-25.5 60.5zM658 1591q0 37 24.5 61.5t61.5 24.5q35 0 60.5 -24.5t25.5 -61.5 q0 -35 -25.5 -60.5t-60.5 -25.5q-37 0 -61.5 25.5t-24.5 60.5z" />
<glyph unicode="&#xcc;" horiz-adv-x="524" d="M-12 1618l47 111l336 -152l-31 -78zM197 0v1382h131v-1382h-131z" />
<glyph unicode="&#xcd;" horiz-adv-x="524" d="M164 1577l334 152l47 -111l-351 -119zM197 0v1382h131v-1382h-131z" />
<glyph unicode="&#xce;" horiz-adv-x="524" d="M-47 1573l311 172l318 -166l-47 -84l-277 133l-264 -133zM197 0v1382h131v-1382h-131z" />
<glyph unicode="&#xcf;" horiz-adv-x="524" d="M-41 1591q0 37 25.5 61.5t60.5 24.5q37 0 61.5 -24.5t24.5 -61.5q0 -35 -25 -60.5t-61 -25.5q-35 0 -60.5 25.5t-25.5 60.5zM197 0v1382h131v-1382h-131zM395 1591q0 37 24.5 61.5t61.5 24.5q35 0 60.5 -24.5t25.5 -61.5q0 -35 -25.5 -60.5t-60.5 -25.5q-37 0 -61.5 25.5 t-24.5 60.5z" />
<glyph unicode="&#xd0;" horiz-adv-x="1421" d="M4 664v102h209v616q80 0 181.5 3.5t205.5 3.5q170 0 303 -42t224.5 -127t139.5 -215.5t48 -304.5q0 -178 -58.5 -311t-162 -220t-246.5 -131t-313 -44q-102 0 -178 4t-144 2v664h-209zM344 113q6 0 30.5 -2t57.5 -4.5t66.5 -3.5t56.5 -1q137 0 252 35t197.5 106.5 t128 183t45.5 265.5q0 297 -150.5 443.5t-443.5 146.5q-61 0 -128 -2t-112 -4v-510h326v-102h-326v-551z" />
<glyph unicode="&#xd1;" horiz-adv-x="1462" d="M197 0v1382h176l610 -962q43 -68 84 -136.5t82 -144.5q-2 78 -5 201t-5 257t-3 225t-1 204v356h131v-1382h-179l-616 975q-43 70 -83 136.5t-77 139.5q2 -51 5 -162.5t5.5 -228.5t4.5 -358v-502h-129zM383 1587q76 137 211 137q51 0 88 -17t66.5 -38.5t58 -39t63.5 -17.5 q78 0 135 94l72 -53q-39 -66 -92 -101.5t-119 -35.5q-51 0 -88 17t-67.5 38.5t-59.5 40t-63 18.5q-35 0 -70 -24.5t-64 -71.5z" />
<glyph unicode="&#xd2;" horiz-adv-x="1445" d="M98 678q0 174 51.5 308t138.5 226.5t203.5 139.5t247.5 47q141 0 255 -46t192 -135.5t120 -218t42 -294.5q0 -174 -51.5 -308.5t-138.5 -226.5t-204.5 -139t-248.5 -47q-154 0 -267.5 50t-189.5 141t-113 219t-37 284zM240 705q0 -135 29.5 -247t89 -192t150.5 -125 t212 -45q96 0 184 39t154.5 113t106.5 183.5t40 250.5q0 291 -127 448.5t-356 157.5q-96 0 -184 -39t-155 -113.5t-105.5 -183t-38.5 -247.5zM430 1618l47 111l336 -152l-31 -78z" />
<glyph unicode="&#xd3;" horiz-adv-x="1445" d="M98 678q0 174 51.5 308t138.5 226.5t203.5 139.5t247.5 47q141 0 255 -46t192 -135.5t120 -218t42 -294.5q0 -174 -51.5 -308.5t-138.5 -226.5t-204.5 -139t-248.5 -47q-154 0 -267.5 50t-189.5 141t-113 219t-37 284zM240 705q0 -135 29.5 -247t89 -192t150.5 -125 t212 -45q96 0 184 39t154.5 113t106.5 183.5t40 250.5q0 291 -127 448.5t-356 157.5q-96 0 -184 -39t-155 -113.5t-105.5 -183t-38.5 -247.5zM641 1577l334 152l47 -111l-351 -119z" />
<glyph unicode="&#xd4;" horiz-adv-x="1445" d="M98 678q0 174 51.5 308t138.5 226.5t203.5 139.5t247.5 47q141 0 255 -46t192 -135.5t120 -218t42 -294.5q0 -174 -51.5 -308.5t-138.5 -226.5t-204.5 -139t-248.5 -47q-154 0 -267.5 50t-189.5 141t-113 219t-37 284zM240 705q0 -135 29.5 -247t89 -192t150.5 -125 t212 -45q96 0 184 39t154.5 113t106.5 183.5t40 250.5q0 291 -127 448.5t-356 157.5q-96 0 -184 -39t-155 -113.5t-105.5 -183t-38.5 -247.5zM418 1573l311 172l318 -166l-47 -84l-277 133l-264 -133z" />
<glyph unicode="&#xd5;" horiz-adv-x="1445" d="M98 678q0 174 51.5 308t138.5 226.5t203.5 139.5t247.5 47q141 0 255 -46t192 -135.5t120 -218t42 -294.5q0 -174 -51.5 -308.5t-138.5 -226.5t-204.5 -139t-248.5 -47q-154 0 -267.5 50t-189.5 141t-113 219t-37 284zM240 705q0 -135 29.5 -247t89 -192t150.5 -125 t212 -45q96 0 184 39t154.5 113t106.5 183.5t40 250.5q0 291 -127 448.5t-356 157.5q-96 0 -184 -39t-155 -113.5t-105.5 -183t-38.5 -247.5zM373 1587q76 137 211 137q51 0 88 -17t66.5 -38.5t58 -39t63.5 -17.5q78 0 135 94l72 -53q-39 -66 -92 -101.5t-119 -35.5 q-51 0 -88 17t-67.5 38.5t-59.5 40t-63 18.5q-35 0 -70 -24.5t-64 -71.5z" />
<glyph unicode="&#xd6;" horiz-adv-x="1445" d="M98 678q0 174 51.5 308t138.5 226.5t203.5 139.5t247.5 47q141 0 255 -46t192 -135.5t120 -218t42 -294.5q0 -174 -51.5 -308.5t-138.5 -226.5t-204.5 -139t-248.5 -47q-154 0 -267.5 50t-189.5 141t-113 219t-37 284zM240 705q0 -135 29.5 -247t89 -192t150.5 -125 t212 -45q96 0 184 39t154.5 113t106.5 183.5t40 250.5q0 291 -127 448.5t-356 157.5q-96 0 -184 -39t-155 -113.5t-105.5 -183t-38.5 -247.5zM418 1591q0 37 25.5 61.5t60.5 24.5q37 0 61.5 -24.5t24.5 -61.5q0 -35 -25 -60.5t-61 -25.5q-35 0 -60.5 25.5t-25.5 60.5z M854 1591q0 37 24.5 61.5t61.5 24.5q35 0 60.5 -24.5t25.5 -61.5q0 -35 -25.5 -60.5t-60.5 -25.5q-37 0 -61.5 25.5t-24.5 60.5z" />
<glyph unicode="&#xd7;" d="M125 242l362 364l-362 363l78 78l362 -363l365 363l71 -72l-362 -365l362 -362l-77 -78l-363 362l-364 -362z" />
<glyph unicode="&#xd8;" horiz-adv-x="1445" d="M98 682q0 172 50.5 306t137.5 225.5t203.5 138.5t247.5 47q94 0 172 -19l76 203l102 -37l-75 -198q160 -70 248 -234t88 -416q0 -174 -49.5 -307t-137.5 -224t-206.5 -137t-256.5 -46q-53 0 -98 5t-86 17l-80 -215l-102 35l80 215q-82 39 -141.5 103.5t-97.5 147.5 t-56.5 181t-18.5 209zM238 698q0 -180 50 -320t169 -214l413 1104q-70 20 -155 20q-96 -2 -182.5 -41t-152 -113.5t-104 -184t-38.5 -251.5zM555 119q39 -14 80 -18.5t80 -4.5q106 0 196 39t156 113t103.5 182.5t37.5 247.5q0 195 -60.5 338t-180.5 209z" />
<glyph unicode="&#xd9;" horiz-adv-x="1435" d="M197 455v927h131v-913q0 -78 15 -146.5t58 -119.5t118 -82t194 -31q98 0 173 22.5t125 71.5t74.5 129t24.5 197v872h129v-860q0 -264 -134 -401t-405 -137q-160 0 -258 41t-153.5 107.5t-73.5 151.5t-18 171zM416 1618l47 111l336 -152l-31 -78z" />
<glyph unicode="&#xda;" horiz-adv-x="1435" d="M197 455v927h131v-913q0 -78 15 -146.5t58 -119.5t118 -82t194 -31q98 0 173 22.5t125 71.5t74.5 129t24.5 197v872h129v-860q0 -264 -134 -401t-405 -137q-160 0 -258 41t-153.5 107.5t-73.5 151.5t-18 171zM662 1577l334 152l47 -111l-351 -119z" />
<glyph unicode="&#xdb;" horiz-adv-x="1435" d="M197 455v927h131v-913q0 -78 15 -146.5t58 -119.5t118 -82t194 -31q98 0 173 22.5t125 71.5t74.5 129t24.5 197v872h129v-860q0 -264 -134 -401t-405 -137q-160 0 -258 41t-153.5 107.5t-73.5 151.5t-18 171zM409 1573l311 172l318 -166l-47 -84l-277 133l-264 -133z" />
<glyph unicode="&#xdc;" horiz-adv-x="1435" d="M197 455v927h131v-913q0 -78 15 -146.5t58 -119.5t118 -82t194 -31q98 0 173 22.5t125 71.5t74.5 129t24.5 197v872h129v-860q0 -264 -134 -401t-405 -137q-160 0 -258 41t-153.5 107.5t-73.5 151.5t-18 171zM412 1591q0 37 25.5 61.5t60.5 24.5q37 0 61.5 -24.5 t24.5 -61.5q0 -35 -25 -60.5t-61 -25.5q-35 0 -60.5 25.5t-25.5 60.5zM848 1591q0 37 24.5 61.5t61.5 24.5q35 0 60.5 -24.5t25.5 -61.5q0 -35 -25.5 -60.5t-60.5 -25.5q-37 0 -61.5 25.5t-24.5 60.5z" />
<glyph unicode="&#xdd;" horiz-adv-x="1062" d="M29 1382h145l246 -514q31 -63 58.5 -125.5t51.5 -124.5h2q27 66 59 134.5t64 136.5l240 493h139l-442 -878v-504h-131v504zM471 1577l334 152l47 -111l-351 -119z" />
<glyph unicode="&#xde;" horiz-adv-x="1067" d="M197 0v1382h131v-221q47 4 92 5t94 1q242 0 375 -104t133 -309q0 -106 -42 -192.5t-115.5 -146t-176 -92t-221.5 -32.5q-41 0 -74 2t-65 6v-299h-131zM328 410q35 -4 73.5 -7.5t83.5 -3.5q193 0 297.5 89t104.5 253q0 72 -22.5 130.5t-72 100.5t-126 64.5t-183.5 22.5 q-37 0 -76.5 -3t-78.5 -9v-637z" />
<glyph unicode="&#xdf;" horiz-adv-x="1191" d="M197 0v1032q0 131 32.5 221t91 145.5t138.5 80t172 24.5q84 0 148.5 -20.5t107.5 -55t64.5 -82t21.5 -100.5q0 -72 -22.5 -118t-57.5 -78.5t-74 -56t-73.5 -48t-57 -56.5t-22.5 -79q0 -59 31.5 -98t79.5 -70t103.5 -58.5t103.5 -65.5t80 -90t32 -132q0 -66 -27 -123 t-78 -99t-124.5 -65.5t-168.5 -23.5q-111 0 -192 16l14 123q86 -29 187 -29q135 0 196.5 54.5t61.5 125.5q0 61 -32 101.5t-80 72t-103.5 59.5t-103.5 65.5t-79.5 91t-31.5 135.5q0 61 22.5 103t57 74t73.5 56.5t74 52t57.5 61.5t22.5 85q0 86 -62.5 128t-161.5 42 q-141 0 -216.5 -82t-75.5 -277v-1042h-129z" />
<glyph unicode="&#xe0;" horiz-adv-x="1062" d="M109 248q0 76 39.5 139.5t118.5 109.5t197 71.5t271 25.5v78q0 125 -52 191.5t-189 66.5q-74 0 -157 -21.5t-144 -56.5l-33 109q72 33 164 53t190 20q102 0 170 -24.5t107.5 -68.5t56 -103.5t16.5 -128.5v-394q0 -78 1 -161.5t3 -153.5h-131q0 61 2 119.5t11 103.5l-5 2 q-37 -100 -131 -170.5t-229 -70.5q-119 0 -197.5 70.5t-78.5 193.5zM240 268q0 -78 48 -128t128 -50q72 0 131 33t101 87t64.5 121.5t22.5 137.5v25q-145 0 -240.5 -19.5t-151.5 -50.5t-79.5 -72t-23.5 -84zM278 1425l86 84l244 -258l-67 -67z" />
<glyph unicode="&#xe1;" horiz-adv-x="1062" d="M109 248q0 76 39.5 139.5t118.5 109.5t197 71.5t271 25.5v78q0 125 -52 191.5t-189 66.5q-74 0 -157 -21.5t-144 -56.5l-33 109q72 33 164 53t190 20q102 0 170 -24.5t107.5 -68.5t56 -103.5t16.5 -128.5v-394q0 -78 1 -161.5t3 -153.5h-131q0 61 2 119.5t11 103.5l-5 2 q-37 -100 -131 -170.5t-229 -70.5q-119 0 -197.5 70.5t-78.5 193.5zM240 268q0 -78 48 -128t128 -50q72 0 131 33t101 87t64.5 121.5t22.5 137.5v25q-145 0 -240.5 -19.5t-151.5 -50.5t-79.5 -72t-23.5 -84zM442 1251l244 258l84 -84l-262 -241z" />
<glyph unicode="&#xe2;" horiz-adv-x="1062" d="M109 248q0 76 39.5 139.5t118.5 109.5t197 71.5t271 25.5v78q0 125 -52 191.5t-189 66.5q-74 0 -157 -21.5t-144 -56.5l-33 109q72 33 164 53t190 20q102 0 170 -24.5t107.5 -68.5t56 -103.5t16.5 -128.5v-394q0 -78 1 -161.5t3 -153.5h-131q0 61 2 119.5t11 103.5l-5 2 q-37 -100 -131 -170.5t-229 -70.5q-119 0 -197.5 70.5t-78.5 193.5zM240 268q0 -78 48 -128t128 -50q72 0 131 33t101 87t64.5 121.5t22.5 137.5v25q-145 0 -240.5 -19.5t-151.5 -50.5t-79.5 -72t-23.5 -84zM256 1245l264 264l263 -260l-68 -65l-199 178l-198 -178z" />
<glyph unicode="&#xe3;" horiz-adv-x="1062" d="M109 248q0 76 39.5 139.5t118.5 109.5t197 71.5t271 25.5v78q0 125 -52 191.5t-189 66.5q-74 0 -157 -21.5t-144 -56.5l-33 109q72 33 164 53t190 20q102 0 170 -24.5t107.5 -68.5t56 -103.5t16.5 -128.5v-394q0 -78 1 -161.5t3 -153.5h-131q0 61 2 119.5t11 103.5l-5 2 q-37 -100 -131 -170.5t-229 -70.5q-119 0 -197.5 70.5t-78.5 193.5zM176 1315q37 68 89.5 104.5t117.5 36.5q49 0 84 -18.5t63.5 -40t55.5 -40t61 -18.5q74 0 129 97l70 -56q-37 -68 -89 -104.5t-118 -36.5q-49 0 -84 18.5t-64.5 40t-57 40t-60.5 18.5q-72 0 -127 -99z M240 268q0 -78 48 -128t128 -50q72 0 131 33t101 87t64.5 121.5t22.5 137.5v25q-145 0 -240.5 -19.5t-151.5 -50.5t-79.5 -72t-23.5 -84z" />
<glyph unicode="&#xe4;" horiz-adv-x="1062" d="M109 248q0 76 39.5 139.5t118.5 109.5t197 71.5t271 25.5v78q0 125 -52 191.5t-189 66.5q-74 0 -157 -21.5t-144 -56.5l-33 109q72 33 164 53t190 20q102 0 170 -24.5t107.5 -68.5t56 -103.5t16.5 -128.5v-394q0 -78 1 -161.5t3 -153.5h-131q0 61 2 119.5t11 103.5l-5 2 q-37 -100 -131 -170.5t-229 -70.5q-119 0 -197.5 70.5t-78.5 193.5zM239 1348q0 39 24.5 63.5t63.5 24.5q37 0 62.5 -24.5t25.5 -63.5q0 -37 -25.5 -62.5t-62.5 -25.5q-39 0 -63.5 25.5t-24.5 62.5zM240 268q0 -78 48 -128t128 -50q72 0 131 33t101 87t64.5 121.5 t22.5 137.5v25q-145 0 -240.5 -19.5t-151.5 -50.5t-79.5 -72t-23.5 -84zM616 1348q0 39 25.5 63.5t62.5 24.5t62.5 -24.5t25.5 -63.5q0 -37 -25.5 -62.5t-62.5 -25.5t-62.5 25.5t-25.5 62.5z" />
<glyph unicode="&#xe5;" horiz-adv-x="1062" d="M109 248q0 76 39.5 139.5t118.5 109.5t197 71.5t271 25.5v78q0 125 -52 191.5t-189 66.5q-74 0 -157 -21.5t-144 -56.5l-33 109q72 33 164 53t190 20q102 0 170 -24.5t107.5 -68.5t56 -103.5t16.5 -128.5v-394q0 -78 1 -161.5t3 -153.5h-131q0 61 2 119.5t11 103.5l-5 2 q-37 -100 -131 -170.5t-229 -70.5q-119 0 -197.5 70.5t-78.5 193.5zM240 268q0 -78 48 -128t128 -50q72 0 131 33t101 87t64.5 121.5t22.5 137.5v25q-145 0 -240.5 -19.5t-151.5 -50.5t-79.5 -72t-23.5 -84zM316 1349q0 43 17 81t46 65.5t67.5 44t82.5 16.5q92 0 151 -59.5 t59 -147.5q0 -41 -16 -78.5t-45 -66.5t-67.5 -45.5t-81.5 -16.5q-90 0 -151.5 57.5t-61.5 149.5zM410 1349q0 -49 33.5 -85t85.5 -36q49 0 82.5 36t33.5 85q0 51 -33.5 86t-82.5 35q-51 0 -85 -35t-34 -86z" />
<glyph unicode="&#xe6;" horiz-adv-x="1660" d="M109 248q0 76 39.5 139.5t118.5 109.5t197 71.5t271 25.5v78q0 125 -52 191.5t-189 66.5q-74 0 -157 -21.5t-144 -56.5l-33 109q72 33 164 53t190 20q119 0 199 -42t112 -138h2q47 76 134.5 128t203.5 52q104 0 178 -32.5t122 -89t69.5 -131t21.5 -156.5q0 -33 -2 -74 h-692q-4 -121 16.5 -208t65.5 -142.5t112.5 -81t155.5 -25.5q76 0 150 15.5t139 44.5l25 -109q-72 -29 -158 -45t-182 -16q-90 0 -159 19.5t-118 53t-80.5 79.5t-48.5 97h-2q-20 -47 -57 -92t-87 -79.5t-112.5 -56t-136.5 -21.5q-119 0 -197.5 70.5t-78.5 193.5zM240 268 q0 -78 48 -128t128 -50q72 0 131 33t101 87t64.5 121.5t22.5 137.5v25q-145 0 -240.5 -19.5t-151.5 -50.5t-79.5 -72t-23.5 -84zM870 649h549q4 129 -66.5 208t-195.5 79q-113 0 -188.5 -76t-98.5 -211z" />
<glyph unicode="&#xe7;" horiz-adv-x="907" d="M94 473q0 127 31 229.5t91 175t149.5 112.5t205.5 40q158 0 271 -47l-29 -106q-53 20 -121.5 35.5t-140.5 15.5q-78 0 -137.5 -32t-99.5 -89t-61.5 -136t-21.5 -171q0 -82 14.5 -156t50.5 -129t99.5 -87t161.5 -32q72 0 138.5 14.5t125.5 41.5l27 -105q-68 -29 -151 -44 t-167 -15q-80 0 -158.5 20.5t-140 74.5t-99.5 148.5t-38 241.5zM398 -483q43 53 68.5 98t31.5 85t-7 79t-50 82l116 55q78 -98 60.5 -194.5t-105.5 -204.5h-114z" />
<glyph unicode="&#xe8;" horiz-adv-x="1030" d="M94 506q0 113 30 210t87 167.5t138 110.5t186 40q104 0 177.5 -32.5t121 -91t70 -131t22.5 -154.5v-28.5t-4 -45.5h-691q-4 -121 16.5 -208t64.5 -142.5t112 -81t158 -25.5q74 0 147.5 15.5t138.5 44.5l25 -109q-72 -29 -158 -45t-182 -16q-223 0 -341 126t-118 396z M240 645h548q4 129 -67.5 208t-194.5 79q-113 0 -189.5 -76t-96.5 -211zM282 1425l86 84l244 -258l-67 -67z" />
<glyph unicode="&#xe9;" horiz-adv-x="1030" d="M94 506q0 113 30 210t87 167.5t138 110.5t186 40q104 0 177.5 -32.5t121 -91t70 -131t22.5 -154.5v-28.5t-4 -45.5h-691q-4 -121 16.5 -208t64.5 -142.5t112 -81t158 -25.5q74 0 147.5 15.5t138.5 44.5l25 -109q-72 -29 -158 -45t-182 -16q-223 0 -341 126t-118 396z M240 645h548q4 129 -67.5 208t-194.5 79q-113 0 -189.5 -76t-96.5 -211zM444 1251l244 258l84 -84l-262 -241z" />
<glyph unicode="&#xea;" horiz-adv-x="1030" d="M94 506q0 113 30 210t87 167.5t138 110.5t186 40q104 0 177.5 -32.5t121 -91t70 -131t22.5 -154.5v-28.5t-4 -45.5h-691q-4 -121 16.5 -208t64.5 -142.5t112 -81t158 -25.5q74 0 147.5 15.5t138.5 44.5l25 -109q-72 -29 -158 -45t-182 -16q-223 0 -341 126t-118 396z M240 645h548q4 129 -67.5 208t-194.5 79q-113 0 -189.5 -76t-96.5 -211zM268 1245l264 264l263 -260l-68 -65l-199 178l-198 -178z" />
<glyph unicode="&#xeb;" horiz-adv-x="1030" d="M94 506q0 113 30 210t87 167.5t138 110.5t186 40q104 0 177.5 -32.5t121 -91t70 -131t22.5 -154.5v-28.5t-4 -45.5h-691q-4 -121 16.5 -208t64.5 -142.5t112 -81t158 -25.5q74 0 147.5 15.5t138.5 44.5l25 -109q-72 -29 -158 -45t-182 -16q-223 0 -341 126t-118 396z M240 645h548q4 129 -67.5 208t-194.5 79q-113 0 -189.5 -76t-96.5 -211zM256 1348q0 39 24.5 63.5t63.5 24.5q37 0 62.5 -24.5t25.5 -63.5q0 -37 -25.5 -62.5t-62.5 -25.5q-39 0 -63.5 25.5t-24.5 62.5zM633 1348q0 39 25.5 63.5t62.5 24.5t62.5 -24.5t25.5 -63.5 q0 -37 -25.5 -62.5t-62.5 -25.5t-62.5 25.5t-25.5 62.5z" />
<glyph unicode="&#xec;" horiz-adv-x="522" d="M43 1425l86 84l244 -258l-67 -67zM197 0v1018h129v-1018h-129z" />
<glyph unicode="&#xed;" horiz-adv-x="522" d="M145 1251l244 258l84 -84l-262 -241zM197 0v1018h129v-1018h-129z" />
<glyph unicode="&#xee;" horiz-adv-x="522" d="M2 1245l264 264l263 -260l-68 -65l-199 178l-198 -178zM197 0v1018h129v-1018h-129z" />
<glyph unicode="&#xef;" horiz-adv-x="522" d="M-15 1348q0 39 24.5 63.5t63.5 24.5q37 0 62.5 -24.5t25.5 -63.5q0 -37 -25.5 -62.5t-62.5 -25.5q-39 0 -63.5 25.5t-24.5 62.5zM197 0v1018h129v-1018h-129zM362 1348q0 39 25.5 63.5t62.5 24.5t62.5 -24.5t25.5 -63.5q0 -37 -25.5 -62.5t-62.5 -25.5t-62.5 25.5 t-25.5 62.5z" />
<glyph unicode="&#xf0;" horiz-adv-x="1105" d="M90 506q0 106 32 202.5t92 169t148.5 114.5t202.5 42q76 0 146.5 -26.5t105.5 -87.5q-20 39 -39.5 71.5t-29.5 48.5q-29 51 -64 99.5t-84 101.5l-221 -100l-60 76l209 94q-35 35 -78.5 70.5t-95.5 76.5l133 58q43 -35 84 -72t80 -78l221 96l60 -76l-213 -94 q135 -162 213 -349t78 -392q0 -145 -36 -251.5t-99.5 -177.5t-149.5 -104.5t-186 -33.5t-183.5 31.5t-141.5 96t-91 163t-33 231.5zM225 516q0 -205 89 -315.5t247 -110.5q63 0 120.5 24.5t100.5 78t67.5 137.5t24.5 205q0 180 -80.5 287.5t-240.5 107.5q-63 0 -121.5 -24.5 t-104.5 -76t-74 -129t-28 -184.5z" />
<glyph unicode="&#xf1;" horiz-adv-x="1185" d="M197 0v1018h131q0 -53 -4.5 -122t-14.5 -116l4 -2q43 117 138.5 186.5t230.5 69.5q88 0 147.5 -25.5t94 -69.5t50 -103.5t15.5 -126.5v-709h-129v659q0 127 -44 199t-163 72q-72 0 -132 -33t-103 -92.5t-67.5 -141t-24.5 -178.5v-485h-129zM264 1315q37 68 89.5 104.5 t117.5 36.5q49 0 84 -18.5t63.5 -40t55.5 -40t61 -18.5q74 0 129 97l70 -56q-37 -68 -89 -104.5t-118 -36.5q-49 0 -84 18.5t-64.5 40t-57 40t-60.5 18.5q-72 0 -127 -99z" />
<glyph unicode="&#xf2;" horiz-adv-x="1105" d="M90 506q0 106 32 202.5t92 168t149.5 114.5t203.5 43q88 0 169 -26.5t142.5 -86t97.5 -158t36 -239.5q0 -111 -33 -209t-94.5 -171.5t-150.5 -116.5t-202 -43q-203 0 -322.5 127t-119.5 395zM225 516q0 -205 85 -315.5t245 -110.5q63 0 121.5 24.5t103.5 77t72 133 t27 193.5q0 193 -82 302.5t-244 109.5q-63 0 -121.5 -24.5t-104.5 -76t-74 -129t-28 -184.5zM319 1425l86 84l244 -258l-67 -67z" />
<glyph unicode="&#xf3;" horiz-adv-x="1105" d="M90 506q0 106 32 202.5t92 168t149.5 114.5t203.5 43q88 0 169 -26.5t142.5 -86t97.5 -158t36 -239.5q0 -111 -33 -209t-94.5 -171.5t-150.5 -116.5t-202 -43q-203 0 -322.5 127t-119.5 395zM225 516q0 -205 85 -315.5t245 -110.5q63 0 121.5 24.5t103.5 77t72 133 t27 193.5q0 193 -82 302.5t-244 109.5q-63 0 -121.5 -24.5t-104.5 -76t-74 -129t-28 -184.5zM477 1251l244 258l84 -84l-262 -241z" />
<glyph unicode="&#xf4;" horiz-adv-x="1105" d="M90 506q0 106 32 202.5t92 168t149.5 114.5t203.5 43q88 0 169 -26.5t142.5 -86t97.5 -158t36 -239.5q0 -111 -33 -209t-94.5 -171.5t-150.5 -116.5t-202 -43q-203 0 -322.5 127t-119.5 395zM225 516q0 -205 85 -315.5t245 -110.5q63 0 121.5 24.5t103.5 77t72 133 t27 193.5q0 193 -82 302.5t-244 109.5q-63 0 -121.5 -24.5t-104.5 -76t-74 -129t-28 -184.5zM289 1245l264 264l263 -260l-68 -65l-199 178l-198 -178z" />
<glyph unicode="&#xf5;" horiz-adv-x="1105" d="M90 506q0 106 32 202.5t92 168t149.5 114.5t203.5 43q88 0 169 -26.5t142.5 -86t97.5 -158t36 -239.5q0 -111 -33 -209t-94.5 -171.5t-150.5 -116.5t-202 -43q-203 0 -322.5 127t-119.5 395zM225 516q0 -205 85 -315.5t245 -110.5q63 0 121.5 24.5t103.5 77t72 133 t27 193.5q0 193 -82 302.5t-244 109.5q-63 0 -121.5 -24.5t-104.5 -76t-74 -129t-28 -184.5zM225 1315q37 68 89.5 104.5t117.5 36.5q49 0 84 -18.5t63.5 -40t55.5 -40t61 -18.5q74 0 129 97l70 -56q-37 -68 -89 -104.5t-118 -36.5q-49 0 -84 18.5t-64.5 40t-57 40 t-60.5 18.5q-72 0 -127 -99z" />
<glyph unicode="&#xf6;" horiz-adv-x="1105" d="M90 506q0 106 32 202.5t92 168t149.5 114.5t203.5 43q88 0 169 -26.5t142.5 -86t97.5 -158t36 -239.5q0 -111 -33 -209t-94.5 -171.5t-150.5 -116.5t-202 -43q-203 0 -322.5 127t-119.5 395zM225 516q0 -205 85 -315.5t245 -110.5q63 0 121.5 24.5t103.5 77t72 133 t27 193.5q0 193 -82 302.5t-244 109.5q-63 0 -121.5 -24.5t-104.5 -76t-74 -129t-28 -184.5zM274 1348q0 39 24.5 63.5t63.5 24.5q37 0 62.5 -24.5t25.5 -63.5q0 -37 -25.5 -62.5t-62.5 -25.5q-39 0 -63.5 25.5t-24.5 62.5zM651 1348q0 39 25.5 63.5t62.5 24.5t62.5 -24.5 t25.5 -63.5q0 -37 -25.5 -62.5t-62.5 -25.5t-62.5 25.5t-25.5 62.5z" />
<glyph unicode="&#xf7;" d="M90 555v109h946v-109h-946zM461 195q0 41 28.5 69.5t69.5 28.5t69.5 -28.5t28.5 -69.5t-28.5 -69t-69.5 -28t-69.5 28t-28.5 69zM461 1020q0 41 28.5 69.5t69.5 28.5t69.5 -28.5t28.5 -69.5t-28.5 -69.5t-69.5 -28.5t-69.5 28.5t-28.5 69.5z" />
<glyph unicode="&#xf8;" horiz-adv-x="1105" d="M90 506q0 106 32 202.5t92 169t149.5 114.5t203.5 42q27 0 52.5 -2t52.5 -6l73 193l97 -35l-74 -189q51 -25 96 -63.5t78 -96t51.5 -134.5t18.5 -177q0 -111 -33 -209t-94.5 -171.5t-149.5 -116.5t-198 -43q-84 0 -148 20l-80 -215l-98 33l86 219q-111 68 -159 192.5 t-48 272.5zM219 516q0 -117 32 -209t93 -143l289 760q-23 4 -44.5 6t-43.5 2q-57 0 -115.5 -22.5t-104.5 -72t-76 -128t-30 -193.5zM430 111q29 -12 61.5 -17.5t69.5 -5.5q61 0 119.5 25.5t103.5 78t72 133t27 193.5q0 274 -158 369z" />
<glyph unicode="&#xf9;" horiz-adv-x="1185" d="M197 309v709h129v-660q0 -127 43 -198.5t163 -71.5q72 0 132.5 33t103.5 92t67.5 141t24.5 178v486h129v-1018h-131q0 53 4 121.5t15 116.5l-5 2q-43 -117 -138 -186.5t-230 -69.5q-88 0 -147.5 25.5t-94.5 69.5t-50 103.5t-15 126.5zM340 1425l86 84l244 -258l-67 -67z " />
<glyph unicode="&#xfa;" horiz-adv-x="1185" d="M197 309v709h129v-660q0 -127 43 -198.5t163 -71.5q72 0 132.5 33t103.5 92t67.5 141t24.5 178v486h129v-1018h-131q0 53 4 121.5t15 116.5l-5 2q-43 -117 -138 -186.5t-230 -69.5q-88 0 -147.5 25.5t-94.5 69.5t-50 103.5t-15 126.5zM522 1251l244 258l84 -84l-262 -241 z" />
<glyph unicode="&#xfb;" horiz-adv-x="1185" d="M197 309v709h129v-660q0 -127 43 -198.5t163 -71.5q72 0 132.5 33t103.5 92t67.5 141t24.5 178v486h129v-1018h-131q0 53 4 121.5t15 116.5l-5 2q-43 -117 -138 -186.5t-230 -69.5q-88 0 -147.5 25.5t-94.5 69.5t-50 103.5t-15 126.5zM330 1245l264 264l263 -260l-68 -65 l-199 178l-198 -178z" />
<glyph unicode="&#xfc;" horiz-adv-x="1185" d="M197 309v709h129v-660q0 -127 43 -198.5t163 -71.5q72 0 132.5 33t103.5 92t67.5 141t24.5 178v486h129v-1018h-131q0 53 4 121.5t15 116.5l-5 2q-43 -117 -138 -186.5t-230 -69.5q-88 0 -147.5 25.5t-94.5 69.5t-50 103.5t-15 126.5zM315 1348q0 39 24.5 63.5t63.5 24.5 q37 0 62.5 -24.5t25.5 -63.5q0 -37 -25.5 -62.5t-62.5 -25.5q-39 0 -63.5 25.5t-24.5 62.5zM692 1348q0 39 25.5 63.5t62.5 24.5t62.5 -24.5t25.5 -63.5q0 -37 -25.5 -62.5t-62.5 -25.5t-62.5 25.5t-25.5 62.5z" />
<glyph unicode="&#xfd;" horiz-adv-x="950" d="M-59 -518l14 119q23 -8 55.5 -12.5t61.5 -4.5q45 0 85 13.5t75.5 46t69.5 89t67 142.5l49 125l-393 1018h151l230 -627q27 -72 44 -126t33 -109h2q12 47 41 132t62 177l196 553h142l-424 -1122q-45 -117 -90 -198t-99.5 -132t-120 -73.5t-149.5 -22.5q-25 0 -52.5 4 t-49.5 8zM409 1251l244 258l84 -84l-262 -241z" />
<glyph unicode="&#xfe;" horiz-adv-x="1142" d="M197 -514v2009h129v-469q0 -31 -1 -64.5t-2 -66.5t-4.5 -61.5t-7.5 -47.5l4 -2q43 115 136.5 182.5t216.5 67.5q180 0 278 -119.5t98 -359.5q0 -139 -36.5 -244.5t-104 -176.5t-163 -107.5t-212.5 -36.5q-57 0 -102 2t-100 10v-516h-129zM326 121q47 -16 99 -23.5 t114 -7.5q168 0 269 106.5t101 346.5q0 182 -63.5 284.5t-198.5 102.5q-82 0 -142.5 -43t-100 -107.5t-59 -142.5t-19.5 -145v-371z" />
<glyph unicode="&#xff;" horiz-adv-x="950" d="M-59 -518l14 119q23 -8 55.5 -12.5t61.5 -4.5q45 0 85 13.5t75.5 46t69.5 89t67 142.5l49 125l-393 1018h151l230 -627q27 -72 44 -126t33 -109h2q12 47 41 132t62 177l196 553h142l-424 -1122q-45 -117 -90 -198t-99.5 -132t-120 -73.5t-149.5 -22.5q-25 0 -52.5 4 t-49.5 8zM205 1348q0 39 24.5 63.5t63.5 24.5q37 0 62.5 -24.5t25.5 -63.5q0 -37 -25.5 -62.5t-62.5 -25.5q-39 0 -63.5 25.5t-24.5 62.5zM582 1348q0 39 25.5 63.5t62.5 24.5t62.5 -24.5t25.5 -63.5q0 -37 -25.5 -62.5t-62.5 -25.5t-62.5 25.5t-25.5 62.5z" />
<glyph unicode="&#x152;" horiz-adv-x="1771" d="M98 678q0 174 51.5 308t138.5 226.5t203.5 139.5t247.5 47q53 0 103.5 -4t97.5 -13h672v-106h-551v-510h524v-104h-524v-553h551v-109h-680q-57 -8 -112.5 -12t-114.5 -4q-154 0 -267.5 50t-189.5 141t-113 219t-37 284zM240 705q0 -135 29.5 -247t89 -192t150.5 -125 t212 -45q49 0 104.5 6.5t104.5 20.5v1137q-51 14 -98.5 21t-104.5 7q-98 0 -186 -39t-156 -113.5t-106.5 -183t-38.5 -247.5z" />
<glyph unicode="&#x153;" horiz-adv-x="1806" d="M90 506q0 106 32 202.5t92 168t149.5 114.5t203.5 43q121 0 223.5 -52t157.5 -169q51 98 142.5 159.5t220.5 61.5q104 0 178 -32.5t121 -89t69.5 -131t22.5 -156.5q0 -10 -1 -28.5t-3 -45.5h-690q-4 -121 16 -208t64.5 -142.5t112 -81t155.5 -25.5q76 0 149.5 15.5 t139.5 44.5l24 -109q-72 -29 -158 -45t-182 -16q-162 0 -259 63.5t-142 171.5q-53 -102 -149.5 -168.5t-246.5 -66.5q-203 0 -322.5 127t-119.5 395zM225 516q0 -205 85 -315.5t245 -110.5q63 0 121.5 24.5t103.5 77t72 133t27 193.5q0 193 -82 302.5t-244 109.5 q-63 0 -121.5 -24.5t-104.5 -76t-74 -129t-28 -184.5zM1014 649h549q4 129 -66 208t-194 79q-115 0 -192 -76t-97 -211z" />
<glyph unicode="&#x178;" horiz-adv-x="1062" d="M29 1382h145l246 -514q31 -63 58.5 -125.5t51.5 -124.5h2q27 66 59 134.5t64 136.5l240 493h139l-442 -878v-504h-131v504zM236 1591q0 37 25.5 61.5t60.5 24.5q37 0 61.5 -24.5t24.5 -61.5q0 -35 -25 -60.5t-61 -25.5q-35 0 -60.5 25.5t-25.5 60.5zM672 1591 q0 37 24.5 61.5t61.5 24.5q35 0 60.5 -24.5t25.5 -61.5q0 -35 -25.5 -60.5t-60.5 -25.5q-37 0 -61.5 25.5t-24.5 60.5z" />
<glyph unicode="&#x2c6;" horiz-adv-x="897" d="M180 1245l264 264l263 -260l-68 -65l-199 178l-198 -178z" />
<glyph unicode="&#x2dc;" horiz-adv-x="1056" d="M184 1315q37 68 89.5 104.5t117.5 36.5q49 0 84 -18.5t63.5 -40t55.5 -40t61 -18.5q74 0 129 97l70 -56q-37 -68 -89 -104.5t-118 -36.5q-49 0 -84 18.5t-64.5 40t-57 40t-60.5 18.5q-72 0 -127 -99z" />
<glyph unicode="&#x2000;" horiz-adv-x="925" />
<glyph unicode="&#x2001;" horiz-adv-x="1851" />
<glyph unicode="&#x2002;" horiz-adv-x="925" />
<glyph unicode="&#x2003;" horiz-adv-x="1851" />
<glyph unicode="&#x2004;" horiz-adv-x="617" />
<glyph unicode="&#x2005;" horiz-adv-x="462" />
<glyph unicode="&#x2006;" horiz-adv-x="308" />
<glyph unicode="&#x2007;" horiz-adv-x="308" />
<glyph unicode="&#x2008;" horiz-adv-x="231" />
<glyph unicode="&#x2009;" horiz-adv-x="370" />
<glyph unicode="&#x200a;" horiz-adv-x="102" />
<glyph unicode="&#x2010;" horiz-adv-x="669" d="M100 549v106h469v-106h-469z" />
<glyph unicode="&#x2011;" horiz-adv-x="669" d="M100 549v106h469v-106h-469z" />
<glyph unicode="&#x2012;" horiz-adv-x="669" d="M100 549v106h469v-106h-469z" />
<glyph unicode="&#x2013;" d="M0 555v109h1126v-109h-1126z" />
<glyph unicode="&#x2014;" horiz-adv-x="2048" d="M252 555v109h1544v-109h-1544z" />
<glyph unicode="&#x2018;" horiz-adv-x="464" d="M121 1195q4 65 49 150t147 183l58 -53q-47 -51 -71.5 -94.5t-33 -78t-3.5 -61.5t18 -45q16 -23 17 -47.5t-9 -45t-29.5 -33.5t-44.5 -13q-45 0 -73.5 36.5t-24.5 101.5z" />
<glyph unicode="&#x2019;" horiz-adv-x="464" d="M86 1098q47 51 71.5 94t34 79t4 62.5t-19.5 44.5q-16 23 -17 47.5t9 44t29.5 33t46.5 13.5q45 0 72.5 -37t23.5 -100.5t-49 -149.5t-146 -182z" />
<glyph unicode="&#x201a;" horiz-adv-x="464" d="M86 -238q47 51 71.5 94.5t34 79t4 62.5t-19.5 45q-16 23 -17 47.5t9 44t29.5 32.5t46.5 13q45 0 72.5 -37t23.5 -100t-49 -148t-146 -184z" />
<glyph unicode="&#x201c;" horiz-adv-x="813" d="M121 1195q4 65 49 150t147 183l58 -53q-47 -51 -71.5 -94.5t-33 -78t-3.5 -61.5t18 -45q16 -23 17 -47.5t-9 -45t-29.5 -33.5t-44.5 -13q-45 0 -73.5 36.5t-24.5 101.5zM469 1195q4 65 48 150t147 183l59 -53q-47 -51 -71.5 -94.5t-34 -78t-4.5 -61.5t18 -45 q16 -23 18 -47.5t-8 -45t-29.5 -33.5t-46.5 -13q-45 0 -72.5 36.5t-23.5 101.5z" />
<glyph unicode="&#x201d;" horiz-adv-x="813" d="M86 1098q47 51 71.5 94t34 79t4 62.5t-19.5 44.5q-16 23 -17 47.5t9 44t29.5 33t46.5 13.5q45 0 72.5 -37t23.5 -100.5t-49 -149.5t-146 -182zM434 1098q47 51 71.5 94t33 79t3.5 62.5t-18 44.5q-16 23 -18 47.5t8 44t30.5 33t45.5 13.5q45 0 73.5 -37t24.5 -100.5 t-49 -149.5t-147 -182z" />
<glyph unicode="&#x201e;" horiz-adv-x="813" d="M86 -238q47 51 71.5 94.5t34 79t4 62.5t-19.5 45q-16 23 -17 47.5t9 44t29.5 32.5t46.5 13q45 0 72.5 -37t23.5 -100t-49 -148t-146 -184zM434 -238q47 51 71.5 94.5t33 79t3.5 62.5t-18 45q-16 23 -18 47.5t8 44t30.5 32.5t45.5 13q45 0 73.5 -37t24.5 -100t-49 -148 t-147 -184z" />
<glyph unicode="&#x2022;" horiz-adv-x="858" d="M221 608q0 43 16.5 81t44 65.5t65.5 44t81 16.5t81 -16.5t66.5 -44t45 -65.5t16.5 -81t-16.5 -81t-45 -65.5t-66.5 -44t-81 -16.5t-81 16.5t-65.5 44t-44 65.5t-16.5 81z" />
<glyph unicode="&#x2026;" horiz-adv-x="1275" d="M115 82q0 41 27.5 69.5t68.5 28.5t69.5 -28.5t28.5 -69.5t-28.5 -69.5t-69.5 -28.5t-68.5 28.5t-27.5 69.5zM528 82q0 41 28 69.5t69 28.5t69.5 -28.5t28.5 -69.5t-28.5 -69.5t-69.5 -28.5t-69 28.5t-28 69.5zM940 82q0 41 28.5 69.5t69.5 28.5t70 -28.5t29 -69.5 t-29 -69.5t-70 -28.5t-69.5 28.5t-28.5 69.5z" />
<glyph unicode="&#x202f;" horiz-adv-x="370" />
<glyph unicode="&#x2039;" horiz-adv-x="643" d="M129 602l250 350l92 -59l-209 -289l209 -285l-94 -63z" />
<glyph unicode="&#x203a;" horiz-adv-x="643" d="M170 317l211 289l-207 285l92 61l248 -344l-254 -352z" />
<glyph unicode="&#x205f;" horiz-adv-x="462" />
<glyph unicode="&#x20ac;" horiz-adv-x="1212" d="M29 485v95h190q-2 20 -2 38v44q0 35 1 65.5t3 58.5h-192v95h200q20 139 72.5 237.5t127.5 160.5t168 91t196 29q96 0 189 -24.5t153 -61.5l-48 -101q-53 35 -135 59.5t-180 24.5q-72 0 -138.5 -23.5t-120.5 -73.5t-92 -129t-54 -189h497v-95h-504q-2 -25 -3 -49t-1 -53 v-53q0 -25 2 -51h506v-95h-497q23 -190 127 -291.5t284 -101.5q90 0 175 27.5t157 75.5l43 -97q-92 -57 -183 -85.5t-222 -28.5q-225 0 -359.5 128t-163.5 373h-196z" />
<glyph unicode="&#x2122;" horiz-adv-x="1443" d="M113 1300v82h428v-82h-160v-493h-109v493h-159zM592 807l86 575h145l107 -360l24 -102l19 92l117 370h141l86 -575h-107l-51 340l-14 119l-29 -101l-110 -358h-119l-109 362l-24 97l-6 -76l-58 -383h-98z" />
<glyph unicode="&#x25fc;" horiz-adv-x="1013" d="M0 0v1014h1014v-1014h-1014z" />
</font>
</defs>
</svg>
